<svg width="107" height="103" viewBox="0 0 107 103" fill="none" xmlns="http://www.w3.org/2000/svg">
<path d="M12.3019 25.166L11.2738 25.2141L11.3514 26.2403L16.0523 88.3882L16.115 89.2161L16.9403 89.3068L93.0257 97.6642L94.2311 97.7966L94.1315 96.5881L88.0377 22.5919L87.9585 21.63L86.9944 21.6751L12.3019 25.166Z" fill="#181A1D" stroke="black" stroke-width="2"/>
<path d="M11.9587 14.2848L10.8848 14.301L10.9775 15.3709L16.329 77.1437L16.4003 77.9667L17.222 78.052L91.6051 85.7754L92.7986 85.8993L92.7054 84.7031L87.2053 14.0874L87.1323 13.151L86.1932 13.1651L11.9587 14.2848Z" fill="#181A1D" stroke="black" stroke-width="2"/>
<path d="M20.1002 74.3294L15.2407 18.2357L83.4361 17.2072L88.438 81.425L20.1002 74.3294Z" fill="#020202" stroke="#313438" stroke-width="6"/>
<g clip-path="url(#clip0_118_280)">
<path fill-rule="evenodd" clip-rule="evenodd" d="M66.9585 63.3571L55.4 46.51L55.4197 46.5258L65.8414 34.4509H62.3588L53.869 44.279L47.127 34.4509H37.9932L48.7842 50.1798L48.7829 50.1785L37.4019 63.3571H40.8845L50.3232 52.4227L57.8247 63.3571H66.9585ZM45.7471 37.0787L61.9645 60.7293H59.2046L42.9742 37.0787H45.7471Z" fill="white"/>
</g>
<defs>
<clipPath id="clip0_118_280">
<rect width="37" height="37" fill="white" transform="translate(33.6812 30.4039)"/>
</clipPath>
</defs>
</svg>
