<svg width="93" height="16" viewBox="0 0 93 16" fill="none" xmlns="http://www.w3.org/2000/svg">
<path d="M78.562 1.96018V0.842773H79.65L91.8827 13.0265V0.842773H93.0001V15.2809H78.562V14.1537H90.7555L78.562 1.96018Z" fill="#FF552A"/>
<path d="M64.5269 0.823242L76.1715 0.833044L76.1812 1.82303L65.5659 1.81323V15.2908L64.5269 15.3006V0.823242ZM68.6142 7.75315C68.6142 8.24977 68.7874 8.68105 69.1337 9.04699C69.4801 9.40639 69.8885 9.58609 70.3589 9.58609C70.836 9.58609 71.2444 9.40639 71.5842 9.04699C71.924 8.68759 72.0939 8.24977 72.0939 7.73354C72.0939 7.20424 71.9305 6.76969 71.6038 6.4299C71.2836 6.08357 70.8915 5.9104 70.4276 5.9104C69.944 5.9104 69.5193 6.09663 69.1533 6.4691C68.7939 6.83504 68.6142 7.26305 68.6142 7.75315Z" fill="#FF552A"/>
<path d="M33.1802 15.2809V0.833008H47.6281V1.8426L34.1898 15.2809H33.1802ZM45.9324 1.8426H34.1898V13.5852L45.9324 1.8426Z" fill="#FF552A"/>
<path d="M16.6733 0.813477H29.0629C31.7551 5.57717 31.7943 10.3637 29.1805 15.1732H16.6733V13.7813H28.2787C30.2064 9.85404 30.2358 5.93984 28.3669 2.03871H16.6733V0.813477Z" fill="#FF552A"/>
<path d="M14.7332 0.97998V13.3695C9.96954 16.0618 5.18297 16.101 0.373535 13.4871V0.97998H1.7654V12.5854C5.69267 14.5131 9.60687 14.5425 13.508 12.6736V0.97998H14.7332Z" fill="#FF552A"/>
</svg>
