<svg width="108" height="112" viewBox="0 0 108 112" fill="none" xmlns="http://www.w3.org/2000/svg">
<path d="M12.5492 33.6359L11.5969 33.7628L11.6855 34.7194L17.4774 97.2681L17.5531 98.0858L18.3699 98.1706L92.753 105.894L93.9607 106.019L93.8523 104.81L86.6773 24.8145L86.584 23.7748L85.5492 23.9126L12.5492 33.6359Z" fill="#00659B" stroke="black" stroke-width="2"/>
<path d="M11.5492 22.6359L10.5969 22.7628L10.6855 23.7194L16.4774 86.2681L16.5531 87.0858L17.3699 87.1706L91.753 94.894L92.9607 95.0194L92.8523 93.81L85.6773 13.8145L85.584 12.7748L84.5492 12.9126L11.5492 22.6359Z" fill="#06D2FF" stroke="black" stroke-width="2"/>
<path d="M20.2332 83.4464L14.9342 26.2204L81.973 17.2911L88.5428 90.5391L20.2332 83.4464Z" fill="black" stroke="#06D2FF" stroke-width="6"/>
<g clip-path="url(#clip0_118_272)">
<path fill-rule="evenodd" clip-rule="evenodd" d="M63.7928 42.953C64.1316 42.7877 64.5085 42.7162 64.8844 42.746C65.2602 42.7758 65.6212 42.9058 65.9297 43.1224C66.2382 43.3391 66.4831 43.6344 66.6387 43.9778C66.7944 44.3212 66.8551 44.7 66.8147 45.0748L64.7048 64.5661C64.4995 66.4463 62.5148 67.6284 60.7546 66.7955C59.2822 66.0986 57.0929 65.0205 55.1141 63.8785C54.1247 63.3069 51.0889 61.4689 51.3692 60.0253C51.6103 58.7909 56.2698 53.9435 58.9264 51.0679C59.9691 49.9382 59.4322 49.3498 58.1854 50.405C55.0892 53.0248 50.1066 57.024 48.4491 58.164C46.9868 59.1692 46.2065 59.3703 45.2543 59.2655C43.5172 59.0749 41.8962 58.72 40.5633 58.252C38.7621 57.6198 38.7131 55.1946 40.3474 54.3968L63.7928 42.953Z" fill="white"/>
</g>
<defs>
<clipPath id="clip0_118_272">
<rect width="33.7469" height="33.7469" fill="white" transform="translate(35.6812 38.278) rotate(-3.18351)"/>
</clipPath>
</defs>
</svg>
