<svg width="250" height="108" viewBox="0 0 250 108" fill="none" xmlns="http://www.w3.org/2000/svg">
<path d="M239.272 32.408L240.073 32.4812L240.173 33.2795L248.137 96.8095L248.273 97.8952L247.18 97.9333L2.63577 106.454L1.38368 106.498L1.6187 105.267L19.1988 13.2163L19.3689 12.3255L20.272 12.408L239.272 32.408Z" fill="#9D0505" stroke="black" stroke-width="2"/>
<path d="M239.272 21.408L240.092 21.4829L240.176 22.302L246.676 85.802L246.785 86.8634L245.718 86.9032L4.71848 95.9032L3.49208 95.949L3.6949 94.7386L19.1949 2.23861L19.3482 1.32364L20.2721 1.40801L239.272 21.408Z" fill="black" stroke="black" stroke-width="2"/>
<path d="M242.371 83.0254L236.448 25.1668L22.6799 5.64456L8.24837 91.7686L242.371 83.0254Z" fill="black" stroke="#FF0606" stroke-width="6"/>
<path d="M47.5732 51.1215H55.1214C56.1136 50.9974 56.7958 50.6254 57.1679 50.0052C57.54 49.385 57.6906 48.6852 57.6197 47.9055C57.6551 47.1613 57.3716 46.488 56.7692 45.8856C56.2553 45.4249 55.6972 45.168 55.0948 45.1148H47.5732V51.1215ZM47.5732 62.3108H54.6961C56.2731 62.3108 57.3185 62.0362 57.8323 61.4869C58.5411 60.8491 58.9132 60.034 58.9486 59.0417C58.984 57.9255 58.6031 57.0218 57.8057 56.3308C57.3096 55.7106 56.2731 55.4005 54.6961 55.4005H47.5732V62.3108ZM42.7094 66.962V55.5866H39.839V51.1481H42.7094V40.4371H54.9087C57.0881 40.6143 58.8246 41.3496 60.118 42.6431C61.4292 43.9011 62.0937 45.5932 62.1114 47.7195C62.1114 48.9244 61.9076 49.9786 61.5001 50.8823C61.128 51.6796 60.5167 52.3529 59.6662 52.9022C60.7825 53.2211 61.7039 53.9653 62.4303 55.1348C63.0859 56.1979 63.4137 57.5179 63.4137 59.0949C63.4137 60.4592 63.1745 61.735 62.6961 62.9221C62.1645 64.0739 61.4558 64.9864 60.5699 65.6597C59.8434 66.2267 59.0992 66.5899 58.3373 66.7494C57.5931 66.9266 56.4148 66.9974 54.8024 66.962H42.7094ZM66.164 40.3042H72.1972V55.374C72.1441 57.6597 72.5516 59.2632 73.4198 60.1846C74.2881 61.106 75.1208 61.6375 75.9182 61.7793C76.7332 61.9033 77.5837 61.9122 78.4697 61.8059C79.3733 61.6818 80.2327 61.1768 81.0477 60.2909C81.8805 59.405 82.2438 57.6951 82.1374 55.1613V40.3308H88.0644V56.0118C88.0998 57.7128 88.0289 59.1392 87.8517 60.2909C87.6745 61.354 87.1873 62.4349 86.3899 63.5334C85.4686 64.6497 84.2637 65.4914 82.7753 66.0584C81.3578 66.6608 80.0555 67.024 78.8683 67.1481C77.6812 67.2898 76.4409 67.2809 75.1474 67.1215C73.8539 66.9797 72.525 66.6165 71.1607 66.0318C70.1507 65.4648 69.2294 64.7915 68.3966 64.0118C67.5284 62.9842 66.9259 62.0273 66.5893 61.1414C66.2349 59.9188 66.0931 58.4925 66.164 56.8623V40.3042ZM105.724 55.4005V66.962H99.5318V55.4005L90.4952 40.4371H96.8474L102.588 49.8989L108.489 40.4371H114.867L105.724 55.4005ZM133.603 66.962H127.942V40.4371L145.75 55.7726V40.4371H151.437V66.962L133.603 51.9454V66.962ZM167.83 45.5667C166.678 45.5667 165.615 45.7527 164.64 46.1248C163.684 46.4969 162.798 47.0728 161.983 47.8524C160.406 49.3762 159.617 51.2809 159.617 53.5667C159.617 55.7283 160.432 57.642 162.062 59.3075C163.693 60.9376 165.597 61.7527 167.777 61.7527C170.009 61.7527 171.896 60.9642 173.438 59.3873C174.962 57.7749 175.741 55.7815 175.777 53.4072C175.777 52.3441 175.582 51.3518 175.192 50.4304C174.82 49.5091 174.226 48.6497 173.411 47.8524C172.614 47.055 171.755 46.4792 170.833 46.1248C169.929 45.7527 168.928 45.5667 167.83 45.5667ZM154.328 53.5932C154.328 49.9077 155.604 46.7893 158.155 44.2378C159.449 42.962 160.902 42.0141 162.514 41.3939C164.127 40.756 165.89 40.4371 167.803 40.4371C169.469 40.4371 171.126 40.7472 172.773 41.3673C174.35 42.0229 175.786 42.9797 177.079 44.2378C177.752 44.8579 178.337 45.5312 178.833 46.2577C179.347 46.9664 179.763 47.7018 180.082 48.4637C180.773 50.0229 181.137 51.6973 181.172 53.4869C181.172 55.2765 180.835 56.9687 180.162 58.5633C179.489 60.2112 178.559 61.6375 177.371 62.8424C176.131 64.1536 174.66 65.1458 172.959 65.8192C171.276 66.5102 169.549 66.8557 167.777 66.8557C165.828 66.8557 164.029 66.519 162.381 65.8457C160.751 65.1547 159.298 64.1536 158.023 62.8424C157.385 62.1868 156.835 61.5135 156.375 60.8225C155.914 60.1137 155.533 59.3873 155.232 58.6431C154.629 56.9775 154.328 55.2942 154.328 53.5932ZM183.339 40.4371H188.655L193.598 53.9653L199.312 42.5899L205.106 54.178L209.518 40.4371H214.781L205.532 66.8557L199.206 51.5999L192.96 66.962L183.339 40.4371Z" fill="white"/>
</svg>
