<svg width="147" height="16" viewBox="0 0 147 16" fill="none" xmlns="http://www.w3.org/2000/svg">
<path d="M132.675 15.0992V2.73909C137.427 0.0532561 142.202 0.0141417 147 2.62175V15.0992H145.612V3.52138C141.694 1.59826 137.789 1.56893 133.897 3.43337V15.0992H132.675Z" fill="#FF552A"/>
<path d="M130.572 0.900757V13.2608C125.82 15.9467 121.045 15.9858 116.247 13.3782V0.900757H117.635V12.4785C121.553 14.4017 125.458 14.431 129.35 12.5666V0.900757H130.572Z" fill="#FF552A"/>
<path d="M99.7305 15.2263V14.1507L113.068 0.812744L114.124 0.822523V15.2263H113.01V3.06181L100.845 15.2263H99.7305Z" fill="#FF552A"/>
<path d="M82.8335 14.3755L96.4648 0.763794L97.3742 1.59497L83.7233 15.2165L82.8335 14.3755Z" fill="#FF552A"/>
<path d="M51.4834 1.87855V0.763794H52.5688L64.7724 12.9185V0.763794H65.8872V15.1676H51.4834V14.043H63.6479L51.4834 1.87855Z" fill="#FF552A"/>
<path d="M49.2933 0.900757V13.2608C44.541 15.9467 39.7658 15.9858 34.9678 13.3782V0.900757H36.3563V12.4785C40.2743 14.4017 44.1792 14.431 48.071 12.5666V0.900757H49.2933Z" fill="#FF552A"/>
<path d="M17.7278 8.15651C19.2924 6.85271 20.5962 6.20081 21.6392 6.20081C22.943 6.20081 24.2468 6.59195 25.5506 7.37423C26.8544 8.15651 28.1582 8.54765 29.462 8.54765C30.7658 8.54765 32.0696 7.89575 33.3734 6.59195C33.6342 6.98309 33.6342 7.37423 33.3734 7.76537C32.0696 9.06918 30.7658 9.72108 29.462 9.72108C28.1582 9.72108 26.8544 9.32994 25.5506 8.54765C24.2468 7.76537 22.943 7.37423 21.6392 7.37423C20.5962 7.37423 19.2924 8.01309 17.7278 9.29082C17.467 8.92576 17.467 8.54765 17.7278 8.15651Z" fill="#FF552A"/>
<path d="M0.771973 1.87855V0.763794H1.85739L14.061 12.9185V0.763794H15.1758V15.1676H0.771973V14.043H12.9365L0.771973 1.87855Z" fill="#FF552A"/>
</svg>
