<svg width="258" height="104" viewBox="0 0 258 104" fill="none" xmlns="http://www.w3.org/2000/svg">
<path d="M0.964258 20.38V19.02H11.1643V20.38H0.964258ZM12.3705 20.38V19.02H22.5705V20.38H12.3705ZM23.7768 20.38V19.02H33.9768V20.38H23.7768Z" fill="#F6BF1D"/>
<path d="M0.964258 46.38V45.02H11.1643V46.38H0.964258ZM12.3705 46.38V45.02H22.5705V46.38H12.3705ZM23.7768 46.38V45.02H33.9768V46.38H23.7768Z" fill="#F6BF1D"/>
<path d="M0.964258 72.38V71.02H11.1643V72.38H0.964258ZM12.3705 72.38V71.02H22.5705V72.38H12.3705ZM23.7768 72.38V71.02H33.9768V72.38H23.7768Z" fill="#F6BF1D"/>
<path d="M0.964258 98.38V97.02H11.1643V98.38H0.964258ZM12.3705 98.38V97.02H22.5705V98.38H12.3705ZM23.7768 98.38V97.02H33.9768V98.38H23.7768Z" fill="#F6BF1D"/>
</svg>
