<svg width="96" height="19" viewBox="0 0 96 19" fill="none" xmlns="http://www.w3.org/2000/svg">
<path d="M95.7155 4.77342L83.522 16.9669H95.7155V18.0941H81.2773V3.65601H82.3948V15.8397L94.6275 3.65601H95.7155V4.77342Z" fill="#FF552A"/>
<path d="M64.3389 17.3002L78.0026 3.65601L78.9142 4.48916L65.2308 18.1431L64.3389 17.3002Z" fill="#FF552A"/>
<path d="M62.2025 3.79321V16.1827C57.4388 18.875 52.6522 18.9142 47.8428 16.3004V3.79321H49.2346V15.3986C53.1619 17.3263 57.0761 17.3557 60.9772 15.4868V3.79321H62.2025Z" fill="#FF552A"/>
<path d="M35.3361 15.8986L44.3048 3.70508L45.2948 4.45002L35.3753 17.9668L25.5049 4.49903L26.4361 3.70508L35.3361 15.8986ZM33.3954 8.0571C33.3954 7.46899 33.611 6.95602 34.0423 6.51821C34.4801 6.08039 34.9865 5.86148 35.5616 5.86148C36.117 5.86148 36.5875 6.06732 36.973 6.479C37.3651 6.89068 37.5612 7.41018 37.5612 8.03749C37.5612 8.66481 37.3553 9.19411 36.9436 9.62539C36.5385 10.0501 36.0484 10.2625 35.4734 10.2625C34.9114 10.2625 34.4246 10.0469 34.0129 9.61559C33.6012 9.17777 33.3954 8.65828 33.3954 8.0571Z" fill="#FF552A"/>
<path d="M10.3605 16.8396V0H11.6642L11.6544 16.8396H20.7211V8.39038H22.0149V18.1334H0V8.39038H1.29384V16.8396H10.3605Z" fill="#FF552A"/>
</svg>
