<svg width="133" height="35" viewBox="0 0 133 35" fill="none" xmlns="http://www.w3.org/2000/svg">
<path d="M13.4645 10.7275L22.4948 25.8414H4.43411L13.4645 10.7275Z" fill="#F4F2EB"/>
<path d="M28.4609 18.4585L21.054 6.24442L35.8678 6.24443L28.4609 18.4585Z" fill="#F4F2EB"/>
<path d="M117.717 16.9464C117.717 15.5486 118.032 14.3181 118.662 13.255C119.311 12.1919 120.188 11.365 121.29 10.7744C122.393 10.164 123.643 9.85889 125.041 9.85889C126.438 9.85889 127.679 10.164 128.761 10.7744C129.864 11.365 130.74 12.1919 131.39 13.255C132.039 14.3181 132.364 15.5486 132.364 16.9464C132.364 18.3245 132.039 19.555 131.39 20.6378C130.74 21.7009 129.864 22.5376 128.761 23.1479C127.679 23.7386 126.438 24.0339 125.041 24.0339C123.643 24.0339 122.393 23.7386 121.29 23.1479C120.188 22.5376 119.311 21.7009 118.662 20.6378C118.032 19.555 117.717 18.3245 117.717 16.9464ZM120.995 16.9464C120.995 17.7929 121.172 18.5411 121.526 19.1908C121.881 19.8208 122.363 20.3228 122.973 20.6968C123.584 21.0512 124.273 21.2284 125.041 21.2284C125.789 21.2284 126.468 21.0512 127.078 20.6968C127.708 20.3228 128.2 19.8208 128.555 19.1908C128.909 18.5411 129.086 17.7929 129.086 16.9464C129.086 16.0998 128.909 15.3517 128.555 14.702C128.2 14.0523 127.708 13.5503 127.078 13.1959C126.468 12.8415 125.789 12.6644 125.041 12.6644C124.273 12.6644 123.584 12.8415 122.973 13.1959C122.363 13.5503 121.881 14.0523 121.526 14.702C121.172 15.3517 120.995 16.0998 120.995 16.9464Z" fill="#F4F2EB"/>
<path d="M103.098 10.1553H106.582L110.126 18.926L113.67 10.1553H117.184L110.126 24.98L103.098 10.1553Z" fill="#F4F2EB"/>
<path d="M87.9248 16.9464C87.9248 15.5486 88.2398 14.3181 88.8698 13.255C89.5195 12.1919 90.3956 11.365 91.4981 10.7744C92.6006 10.164 93.8507 9.85889 95.2485 9.85889C96.6464 9.85889 97.8867 10.164 98.9695 10.7744C100.072 11.365 100.948 12.1919 101.598 13.255C102.247 14.3181 102.572 15.5486 102.572 16.9464C102.572 18.3245 102.247 19.555 101.598 20.6378C100.948 21.7009 100.072 22.5376 98.9695 23.1479C97.8867 23.7386 96.6464 24.0339 95.2485 24.0339C93.8507 24.0339 92.6006 23.7386 91.4981 23.1479C90.3956 22.5376 89.5195 21.7009 88.8698 20.6378C88.2398 19.555 87.9248 18.3245 87.9248 16.9464ZM91.2028 16.9464C91.2028 17.7929 91.38 18.5411 91.7343 19.1908C92.0887 19.8208 92.571 20.3228 93.1814 20.6968C93.7917 21.0512 94.4807 21.2284 95.2485 21.2284C95.9967 21.2284 96.6759 21.0512 97.2862 20.6968C97.9162 20.3228 98.4084 19.8208 98.7628 19.1908C99.1171 18.5411 99.2943 17.7929 99.2943 16.9464C99.2943 16.0998 99.1171 15.3517 98.7628 14.702C98.4084 14.0523 97.9162 13.5503 97.2862 13.1959C96.6759 12.8415 95.9967 12.6644 95.2485 12.6644C94.4807 12.6644 93.7917 12.8415 93.1814 13.1959C92.571 13.5503 92.0887 14.0523 91.7343 14.702C91.38 15.3517 91.2028 16.0998 91.2028 16.9464Z" fill="#F4F2EB"/>
<path d="M81.6075 15.4698C81.6075 14.4658 81.4007 13.7078 80.9873 13.1959C80.5739 12.684 79.934 12.4281 79.0678 12.4281C78.4771 12.4281 77.9554 12.5561 77.5026 12.812C77.0498 13.0483 76.6954 13.4026 76.4395 13.8751C76.1836 14.3279 76.0556 14.8595 76.0556 15.4698V23.7386H72.8662V10.1542H76.0556V12.2509C76.4887 11.4437 77.04 10.8433 77.7093 10.4495C78.3984 10.0558 79.2154 9.85889 80.1604 9.85889C81.696 9.85889 82.8675 10.3314 83.6746 11.2764C84.4818 12.2017 84.8854 13.4814 84.8854 15.1154V23.7386H81.6075V15.4698Z" fill="#F4F2EB"/>
<path d="M60.9591 19.2793C61.3922 19.7518 61.8254 20.1653 62.2585 20.5197C62.7113 20.8543 63.1641 21.1103 63.6169 21.2875C64.0697 21.445 64.5225 21.5237 64.9753 21.5237C65.5463 21.5237 65.9893 21.3958 66.3043 21.1398C66.6389 20.8839 66.8063 20.5295 66.8063 20.0767C66.8063 19.6829 66.6783 19.3483 66.4224 19.0726C66.1664 18.7773 65.8121 18.5312 65.3593 18.3343C64.9064 18.1178 64.3749 17.9012 63.7646 17.6847C63.1543 17.4484 62.5439 17.1728 61.9336 16.8578C61.343 16.5231 60.8508 16.09 60.4571 15.5584C60.083 15.0269 59.896 14.3575 59.896 13.5503C59.896 12.7234 60.1027 12.0344 60.5161 11.4831C60.9493 10.9319 61.5202 10.5283 62.2289 10.2723C62.9574 9.9967 63.735 9.85889 64.5619 9.85889C65.31 9.85889 66.0089 9.96717 66.6586 10.1837C67.328 10.4003 67.9285 10.6858 68.46 11.0401C68.9916 11.3945 69.4444 11.7981 69.8185 12.2509L68.0466 14.1409C67.5938 13.6094 67.0524 13.1762 66.4224 12.8415C65.7924 12.5069 65.1427 12.3395 64.4733 12.3395C64.0205 12.3395 63.6464 12.4379 63.3511 12.6348C63.0558 12.8317 62.9082 13.1172 62.9082 13.4912C62.9082 13.8062 63.0361 14.0917 63.2921 14.3476C63.5677 14.5839 63.9221 14.8004 64.3552 14.9973C64.808 15.1942 65.31 15.4009 65.8613 15.6175C66.6094 15.9128 67.2985 16.2376 67.9285 16.592C68.5585 16.9464 69.0605 17.3795 69.4346 17.8914C69.8283 18.4033 70.0252 19.0726 70.0252 19.8995C70.0252 21.1792 69.5822 22.2128 68.6963 23.0003C67.83 23.7681 66.6488 24.152 65.1525 24.152C64.2272 24.152 63.3708 24.0142 62.5833 23.7386C61.8155 23.4433 61.1363 23.0692 60.5457 22.6164C59.9747 22.1439 59.4924 21.6517 59.0986 21.1398L60.9591 19.2793Z" fill="#F4F2EB"/>
<path d="M42.6709 16.9464C42.6709 15.5486 42.9859 14.3181 43.6159 13.255C44.2656 12.1919 45.1417 11.365 46.2442 10.7744C47.3467 10.164 48.5968 9.85889 49.9946 9.85889C51.3925 9.85889 52.6328 10.164 53.7156 10.7744C54.8181 11.365 55.6942 12.1919 56.3439 13.255C56.9935 14.3181 57.3184 15.5486 57.3184 16.9464C57.3184 18.3245 56.9935 19.555 56.3439 20.6378C55.6942 21.7009 54.8181 22.5376 53.7156 23.1479C52.6328 23.7386 51.3925 24.0339 49.9946 24.0339C48.5968 24.0339 47.3467 23.7386 46.2442 23.1479C45.1417 22.5376 44.2656 21.7009 43.6159 20.6378C42.9859 19.555 42.6709 18.3245 42.6709 16.9464ZM45.9489 16.9464C45.9489 17.7929 46.1261 18.5411 46.4804 19.1908C46.8348 19.8208 47.3171 20.3228 47.9275 20.6968C48.5378 21.0512 49.2268 21.2284 49.9946 21.2284C50.7428 21.2284 51.422 21.0512 52.0323 20.6968C52.6623 20.3228 53.1545 19.8208 53.5089 19.1908C53.8632 18.5411 54.0404 17.7929 54.0404 16.9464C54.0404 16.0998 53.8632 15.3517 53.5089 14.702C53.1545 14.0523 52.6623 13.5503 52.0323 13.1959C51.422 12.8415 50.7428 12.6644 49.9946 12.6644C49.2268 12.6644 48.5378 12.8415 47.9275 13.1959C47.3171 13.5503 46.8348 14.0523 46.4804 14.702C46.1261 15.3517 45.9489 16.0998 45.9489 16.9464Z" fill="#F4F2EB"/>
</svg>
