<svg width="334" height="105" viewBox="0 0 334 105" fill="none" xmlns="http://www.w3.org/2000/svg">
<path d="M333.38 18.2964V15.5364H330.62V18.2964H333.38ZM324.2 18.2964V15.5364H321.44V18.2964H324.2ZM315.021 18.2964V15.5364H312.261V18.2964H315.021Z" fill="#00EEFF"/>
<path d="M333.38 44.2964V41.5364H330.62V44.2964H333.38ZM324.2 44.2964V41.5364H321.44V44.2964H324.2ZM315.021 44.2964V41.5364H312.261V44.2964H315.021ZM305.841 44.2964V41.5364H303.081V44.2964H305.841ZM296.661 44.2964V41.5364H293.901V44.2964H296.661Z" fill="#00EEFF"/>
<path d="M333.38 70.2964V67.5364H330.62V70.2964H333.38ZM324.2 70.2964V67.5364H321.44V70.2964H324.2ZM315.021 70.2964V67.5364H312.261V70.2964H315.021ZM305.841 70.2964V67.5364H303.081V70.2964H305.841ZM296.661 70.2964V67.5364H293.901V70.2964H296.661ZM287.482 70.2964V67.5364H284.722V70.2964H287.482ZM278.302 70.2964V67.5364H275.542V70.2964H278.302Z" fill="#00EEFF"/>
<path d="M333.38 96.2964V93.5364H330.62V96.2964H333.38ZM324.2 96.2964V93.5364H321.44V96.2964H324.2ZM315.021 96.2964V93.5364H312.261V96.2964H315.021ZM305.841 96.2964V93.5364H303.081V96.2964H305.841ZM296.661 96.2964V93.5364H293.901V96.2964H296.661ZM287.482 96.2964V93.5364H284.722V96.2964H287.482ZM278.302 96.2964V93.5364H275.542V96.2964H278.302ZM269.122 96.2964V93.5364H266.362V96.2964H269.122ZM259.942 96.2964V93.5364H257.182V96.2964H259.942Z" fill="#00EEFF"/>
<path d="M3.61012 27.7364V26.1764H9.51012V27.7364H3.61012ZM1.47012 31.2964L5.63012 17.6964H6.57012H7.19012L6.57012 19.6964L3.13012 31.2964H1.47012ZM7.51012 17.6964L11.6701 31.2964H10.0101L6.57012 19.6964L5.95012 17.6964H6.57012H7.51012ZM13.6967 31.2964L13.6967 17.6964H15.2967L15.2967 31.2964H13.6967ZM14.6167 25.8964V24.3164H19.3967C20.3033 24.3164 21.01 24.1097 21.5167 23.6964C22.0367 23.2831 22.2967 22.6697 22.2967 21.8564C22.2967 21.0564 22.0367 20.4297 21.5167 19.9764C21.01 19.5231 20.3033 19.2964 19.3967 19.2964H14.6167V17.6964H19.6967C20.2833 17.6964 20.83 17.8031 21.3367 18.0164C21.8433 18.2297 22.2833 18.5297 22.6567 18.9164C23.0433 19.2897 23.3433 19.7297 23.5567 20.2364C23.7833 20.7297 23.8967 21.2697 23.8967 21.8564C23.8967 22.4297 23.79 22.9631 23.5767 23.4564C23.3633 23.9497 23.0633 24.3764 22.6767 24.7364C22.3033 25.0964 21.8633 25.3831 21.3567 25.5964C20.85 25.7964 20.2967 25.8964 19.6967 25.8964H14.6167ZM25.6107 33.6764V32.3164H35.8107V33.6764H25.6107ZM42.2123 33.6764V32.3164H52.4123V33.6764H42.2123ZM58.8139 33.6764V32.3164H69.0139V33.6764H58.8139ZM75.4154 33.6764V32.3164H85.6154V33.6764H75.4154ZM92.017 31.2964V17.6964H93.617V31.2964H92.017ZM102.817 31.2964V17.6964H104.417V31.2964H102.817ZM92.317 17.6964H93.877L98.997 31.2964H97.437L92.317 17.6964ZM102.557 17.6964H104.117L98.997 31.2964H97.437L102.557 17.6964ZM105.631 23.5964C105.631 22.6631 105.737 21.8231 105.951 21.0764C106.177 20.3164 106.504 19.6764 106.931 19.1564C107.357 18.6231 107.891 18.2164 108.531 17.9364C109.171 17.6431 109.904 17.4964 110.731 17.4964C111.557 17.4964 112.284 17.6431 112.911 17.9364C113.551 18.2164 114.084 18.6231 114.511 19.1564C114.951 19.6764 115.277 20.3164 115.491 21.0764C115.717 21.8231 115.831 22.6631 115.831 23.5964V25.3964C115.831 26.3164 115.717 27.1564 115.491 27.9164C115.277 28.6631 114.951 29.3031 114.511 29.8364C114.084 30.3697 113.551 30.7831 112.911 31.0764C112.284 31.3564 111.557 31.4964 110.731 31.4964C109.904 31.4964 109.171 31.3564 108.531 31.0764C107.891 30.7831 107.357 30.3697 106.931 29.8364C106.504 29.3031 106.177 28.6631 105.951 27.9164C105.737 27.1697 105.631 26.3297 105.631 25.3964V23.5964ZM107.211 23.5964V25.3964C107.211 26.0764 107.277 26.6964 107.411 27.2564C107.544 27.8031 107.751 28.2764 108.031 28.6764C108.324 29.0631 108.691 29.3631 109.131 29.5764C109.571 29.7897 110.104 29.8964 110.731 29.8964C111.357 29.8964 111.891 29.7897 112.331 29.5764C112.771 29.3631 113.131 29.0631 113.411 28.6764C113.691 28.2764 113.897 27.8031 114.031 27.2564C114.164 26.6964 114.231 26.0764 114.231 25.3964V23.5964C114.231 22.9164 114.164 22.3031 114.031 21.7564C113.897 21.1964 113.691 20.7231 113.411 20.3364C113.131 19.9364 112.771 19.6297 112.331 19.4164C111.891 19.2031 111.357 19.0964 110.731 19.0964C110.104 19.0964 109.571 19.2031 109.131 19.4164C108.691 19.6297 108.324 19.9364 108.031 20.3364C107.751 20.7231 107.544 21.1964 107.411 21.7564C107.277 22.3031 107.211 22.9164 107.211 23.5964ZM117.057 23.5964C117.057 22.6631 117.163 21.8231 117.377 21.0764C117.603 20.3164 117.93 19.6764 118.357 19.1564C118.783 18.6231 119.317 18.2164 119.957 17.9364C120.597 17.6431 121.33 17.4964 122.157 17.4964C122.983 17.4964 123.71 17.6431 124.337 17.9364C124.977 18.2164 125.51 18.6231 125.937 19.1564C126.377 19.6764 126.703 20.3164 126.917 21.0764C127.143 21.8231 127.257 22.6631 127.257 23.5964V25.3964C127.257 26.3164 127.143 27.1564 126.917 27.9164C126.703 28.6631 126.377 29.3031 125.937 29.8364C125.51 30.3697 124.977 30.7831 124.337 31.0764C123.71 31.3564 122.983 31.4964 122.157 31.4964C121.33 31.4964 120.597 31.3564 119.957 31.0764C119.317 30.7831 118.783 30.3697 118.357 29.8364C117.93 29.3031 117.603 28.6631 117.377 27.9164C117.163 27.1697 117.057 26.3297 117.057 25.3964V23.5964ZM118.637 23.5964V25.3964C118.637 26.0764 118.703 26.6964 118.837 27.2564C118.97 27.8031 119.177 28.2764 119.457 28.6764C119.75 29.0631 120.117 29.3631 120.557 29.5764C120.997 29.7897 121.53 29.8964 122.157 29.8964C122.783 29.8964 123.317 29.7897 123.757 29.5764C124.197 29.3631 124.557 29.0631 124.837 28.6764C125.117 28.2764 125.323 27.8031 125.457 27.2564C125.59 26.6964 125.657 26.0764 125.657 25.3964V23.5964C125.657 22.9164 125.59 22.3031 125.457 21.7564C125.323 21.1964 125.117 20.7231 124.837 20.3364C124.557 19.9364 124.197 19.6297 123.757 19.4164C123.317 19.2031 122.783 19.0964 122.157 19.0964C121.53 19.0964 120.997 19.2031 120.557 19.4164C120.117 19.6297 119.75 19.9364 119.457 20.3364C119.177 20.7231 118.97 21.1964 118.837 21.7564C118.703 22.3031 118.637 22.9164 118.637 23.5964ZM128.462 31.2964V17.6964H130.062V31.2964H128.462ZM138.662 31.2964V17.6964H140.262V31.2964H138.662ZM140.262 31.2964H138.662L128.462 18.2364V17.6964H130.062L140.262 30.7564V31.2964ZM146.665 33.6764V32.3164H156.865V33.6764H146.665ZM163.267 33.6764V32.3164H173.467V33.6764H163.267ZM179.869 33.6764V32.3164H190.069V33.6764H179.869ZM196.47 17.6964H198.07V26.0764C198.07 26.6231 198.15 27.1364 198.31 27.6164C198.47 28.0831 198.697 28.4831 198.99 28.8164C199.297 29.1497 199.657 29.4164 200.07 29.6164C200.483 29.8031 200.95 29.8964 201.47 29.8964C201.99 29.8964 202.47 29.8031 202.91 29.6164C203.35 29.4297 203.73 29.1697 204.05 28.8364C204.37 28.4897 204.617 28.0831 204.79 27.6164C204.977 27.1497 205.07 26.6364 205.07 26.0764V17.6964H206.67V26.0764C206.67 26.8497 206.537 27.5697 206.27 28.2364C206.017 28.8897 205.657 29.4631 205.19 29.9564C204.737 30.4364 204.19 30.8164 203.55 31.0964C202.923 31.3631 202.237 31.4964 201.49 31.4964C200.743 31.4964 200.063 31.3631 199.45 31.0964C198.837 30.8164 198.31 30.4364 197.87 29.9564C197.43 29.4631 197.083 28.8897 196.83 28.2364C196.59 27.5697 196.47 26.8497 196.47 26.0764V17.6964ZM217.776 22.4764H216.176C216.176 21.9831 216.103 21.5431 215.956 21.1564C215.81 20.7564 215.59 20.4164 215.296 20.1364C215.016 19.8431 214.663 19.6231 214.236 19.4764C213.823 19.3164 213.35 19.2364 212.816 19.2364C211.736 19.2364 210.943 19.4231 210.436 19.7964C209.93 20.1697 209.676 20.7431 209.676 21.5164C209.676 22.0897 209.883 22.5031 210.296 22.7564C210.71 22.9964 211.23 23.1764 211.856 23.2964C212.483 23.4164 213.156 23.5164 213.876 23.5964C214.61 23.6631 215.283 23.8164 215.896 24.0564C216.523 24.2964 217.043 24.6631 217.456 25.1564C217.87 25.6497 218.076 26.3697 218.076 27.3164C218.076 27.9831 217.943 28.5697 217.676 29.0764C217.423 29.5697 217.063 29.9831 216.596 30.3164C216.143 30.6364 215.596 30.8831 214.956 31.0564C214.316 31.2164 213.616 31.2964 212.856 31.2964C212.096 31.2964 211.403 31.1631 210.776 30.8964C210.163 30.6297 209.643 30.2697 209.216 29.8164C208.79 29.3631 208.456 28.8364 208.216 28.2364C207.99 27.6231 207.876 26.9831 207.876 26.3164H209.476C209.476 27.3564 209.79 28.1897 210.416 28.8164C211.056 29.4297 211.936 29.7364 213.056 29.7364C214.176 29.7364 215.023 29.5231 215.596 29.0964C216.183 28.6697 216.476 28.0097 216.476 27.1164C216.476 26.5031 216.27 26.0631 215.856 25.7964C215.443 25.5164 214.923 25.3097 214.296 25.1764C213.683 25.0297 213.01 24.9164 212.276 24.8364C211.556 24.7431 210.883 24.5831 210.256 24.3564C209.63 24.1297 209.11 23.7831 208.696 23.3164C208.283 22.8497 208.076 22.1697 208.076 21.2764C208.076 20.6631 208.196 20.1364 208.436 19.6964C208.676 19.2431 209.003 18.8697 209.416 18.5764C209.843 18.2831 210.35 18.0631 210.936 17.9164C211.523 17.7697 212.163 17.6964 212.856 17.6964C213.616 17.6964 214.303 17.8231 214.916 18.0764C215.53 18.3164 216.043 18.6497 216.456 19.0764C216.883 19.5031 217.21 20.0097 217.436 20.5964C217.663 21.1831 217.776 21.8097 217.776 22.4764ZM218.951 31.2964V17.6964H220.551V31.2964H218.951ZM219.871 19.2364V17.6964H228.231V19.2364H219.871ZM219.871 31.2964V29.7364H228.231V31.2964H219.871ZM219.871 25.2764V23.7164H227.431V25.2764H219.871ZM240.758 31.2964H238.778L234.438 25.5764H236.418L240.758 31.2964ZM230.298 17.6964H231.898V31.2964H230.298V17.6964ZM231.218 24.3164H235.998C236.905 24.3164 237.612 24.1097 238.118 23.6964C238.638 23.2831 238.898 22.6697 238.898 21.8564C238.898 21.0564 238.638 20.4297 238.118 19.9764C237.612 19.5231 236.905 19.2964 235.998 19.2964H231.218V17.6964H236.298C236.885 17.6964 237.432 17.8031 237.938 18.0164C238.445 18.2297 238.885 18.5297 239.258 18.9164C239.645 19.2897 239.945 19.7297 240.158 20.2364C240.385 20.7297 240.498 21.2697 240.498 21.8564C240.498 22.4297 240.392 22.9631 240.178 23.4564C239.965 23.9497 239.665 24.3764 239.278 24.7364C238.905 25.0964 238.465 25.3831 237.958 25.5964C237.452 25.7964 236.898 25.8964 236.298 25.8964H231.218V24.3164Z" fill="#00EEFF"/>
<path d="M1.47012 59.6764V58.3164H11.6701V59.6764H1.47012ZM18.0717 59.6764V58.3164H28.2717V59.6764H18.0717ZM34.6732 59.6764V58.3164H44.8732V59.6764H34.6732ZM51.2748 59.6764V58.3164H61.4748V59.6764H51.2748ZM67.8764 59.6764V58.3164H78.0764V59.6764H67.8764ZM84.4779 59.6764V58.3164H94.6779V59.6764H84.4779ZM101.079 59.6764V58.3164H111.279V59.6764H101.079ZM117.681 59.6764V58.3164H127.881V59.6764H117.681ZM134.283 59.6764V58.3164H144.483V59.6764H134.283ZM150.884 59.6764V58.3164H161.084V59.6764H150.884ZM177.386 48.4764H175.786C175.786 47.9831 175.712 47.5431 175.566 47.1564C175.419 46.7564 175.199 46.4164 174.906 46.1364C174.626 45.8431 174.272 45.6231 173.846 45.4764C173.432 45.3164 172.959 45.2364 172.426 45.2364C171.346 45.2364 170.552 45.4231 170.046 45.7964C169.539 46.1697 169.286 46.7431 169.286 47.5164C169.286 48.0897 169.492 48.5031 169.906 48.7564C170.319 48.9964 170.839 49.1764 171.466 49.2964C172.092 49.4164 172.766 49.5164 173.486 49.5964C174.219 49.6631 174.892 49.8164 175.506 50.0564C176.132 50.2964 176.652 50.6631 177.066 51.1564C177.479 51.6497 177.686 52.3697 177.686 53.3164C177.686 53.9831 177.552 54.5697 177.286 55.0764C177.032 55.5697 176.672 55.9831 176.206 56.3164C175.752 56.6364 175.206 56.8831 174.566 57.0564C173.926 57.2164 173.226 57.2964 172.466 57.2964C171.706 57.2964 171.012 57.1631 170.386 56.8964C169.772 56.6297 169.252 56.2697 168.826 55.8164C168.399 55.3631 168.066 54.8364 167.826 54.2364C167.599 53.6231 167.486 52.9831 167.486 52.3164H169.086C169.086 53.3564 169.399 54.1897 170.026 54.8164C170.666 55.4297 171.546 55.7364 172.666 55.7364C173.786 55.7364 174.632 55.5231 175.206 55.0964C175.792 54.6697 176.086 54.0097 176.086 53.1164C176.086 52.5031 175.879 52.0631 175.466 51.7964C175.052 51.5164 174.532 51.3097 173.906 51.1764C173.292 51.0297 172.619 50.9164 171.886 50.8364C171.166 50.7431 170.492 50.5831 169.866 50.3564C169.239 50.1297 168.719 49.7831 168.306 49.3164C167.892 48.8497 167.686 48.1697 167.686 47.2764C167.686 46.6631 167.806 46.1364 168.046 45.6964C168.286 45.2431 168.612 44.8697 169.026 44.5764C169.452 44.2831 169.959 44.0631 170.546 43.9164C171.132 43.7697 171.772 43.6964 172.466 43.6964C173.226 43.6964 173.912 43.8231 174.526 44.0764C175.139 44.3164 175.652 44.6497 176.066 45.0764C176.492 45.5031 176.819 46.0097 177.046 46.5964C177.272 47.1831 177.386 47.8097 177.386 48.4764ZM171.866 42.2964H173.226V44.2964H171.866V42.2964ZM171.866 56.6964H173.226V58.6964H171.866V56.6964ZM178.892 45.2364V43.6964H189.092V45.2364H178.892ZM183.192 57.2964V44.4164H184.792V57.2964H183.192ZM192.438 53.7364V52.1764H198.338V53.7364H192.438ZM190.298 57.2964L194.458 43.6964H195.398H196.018L195.398 45.6964L191.958 57.2964H190.298ZM196.338 43.6964L200.498 57.2964H198.838L195.398 45.6964L194.778 43.6964H195.398H196.338ZM212.985 57.2964H211.005L206.665 51.5764H208.645L212.985 57.2964ZM202.525 43.6964H204.125V57.2964H202.525V43.6964ZM203.445 50.3164H208.225C209.131 50.3164 209.838 50.1097 210.345 49.6964C210.865 49.2831 211.125 48.6697 211.125 47.8564C211.125 47.0564 210.865 46.4297 210.345 45.9764C209.838 45.5231 209.131 45.2964 208.225 45.2964H203.445V43.6964H208.525C209.111 43.6964 209.658 43.8031 210.165 44.0164C210.671 44.2297 211.111 44.5297 211.485 44.9164C211.871 45.2897 212.171 45.7297 212.385 46.2364C212.611 46.7297 212.725 47.2697 212.725 47.8564C212.725 48.4297 212.618 48.9631 212.405 49.4564C212.191 49.9497 211.891 50.3764 211.505 50.7364C211.131 51.0964 210.691 51.3831 210.185 51.5964C209.678 51.7964 209.125 51.8964 208.525 51.8964H203.445V50.3164ZM214.966 57.2964V43.6964H216.566V57.2964H214.966ZM215.886 57.2964V55.7164H219.146C220.64 55.7164 221.746 55.2897 222.466 54.4364C223.2 53.5831 223.566 52.2831 223.566 50.5364C223.566 48.7897 223.2 47.4831 222.466 46.6164C221.746 45.7364 220.64 45.2964 219.146 45.2964H215.886V43.6964H219.446C220.22 43.6964 220.953 43.8297 221.646 44.0964C222.34 44.3631 222.946 44.7764 223.466 45.3364C223.986 45.8964 224.4 46.6097 224.706 47.4764C225.013 48.3297 225.166 49.3497 225.166 50.5364C225.166 51.7231 225.013 52.7431 224.706 53.5964C224.4 54.4497 223.986 55.1497 223.466 55.6964C222.946 56.2431 222.34 56.6497 221.646 56.9164C220.953 57.1697 220.22 57.2964 219.446 57.2964H215.886ZM229.576 57.2964V55.7364H239.776V57.2964H229.576ZM229.576 45.2364V43.6964H239.776V45.2364H229.576ZM233.876 56.6364V44.2964H235.476V56.6364H233.876Z" fill="#00EEFF"/>
<path d="M1.47012 88.6764V87.3164H11.6701V88.6764H1.47012ZM18.0717 88.6764V87.3164H28.2717V88.6764H18.0717ZM181.764 86.2964H179.542V81.8519H181.764V86.2964ZM190.653 75.1853H188.431V70.7408H190.653V75.1853ZM183.986 81.8519H181.764V79.6297H183.986V81.8519ZM186.209 79.6297H183.986V77.4075H186.209V79.6297ZM188.431 77.4075H186.209V75.1853H188.431V77.4075ZM195.104 86.2964H192.882V81.8519H195.104V86.2964ZM203.993 75.1853H201.771V70.7408H203.993V75.1853ZM197.326 81.8519H195.104V79.6297H197.326V81.8519ZM199.549 79.6297H197.326V77.4075H199.549V79.6297ZM201.771 77.4075H199.549V75.1853H201.771V77.4075ZM208.444 86.2964H206.222V81.8519H208.444V86.2964ZM217.333 75.1853H215.111V70.7408H217.333V75.1853ZM210.666 81.8519H208.444V79.6297H210.666V81.8519ZM212.888 79.6297H210.666V77.4075H212.888V79.6297ZM215.111 77.4075H212.888V75.1853H215.111V77.4075ZM221.784 86.2964H219.562V81.8519H221.784V86.2964ZM230.673 75.1853H228.45V70.7408H230.673V75.1853ZM224.006 81.8519H221.784V79.6297H224.006V81.8519ZM226.228 79.6297H224.006V77.4075H226.228V79.6297ZM228.45 77.4075H226.228V75.1853H228.45V77.4075Z" fill="#00EEFF"/>
</svg>
