<svg width="1161" height="65" viewBox="0 0 1161 65" fill="none" xmlns="http://www.w3.org/2000/svg">
<path fill-rule="evenodd" clip-rule="evenodd" d="M76.4995 45.6043H50.6485L19.7842 17.814H45.6352L76.4995 45.6043ZM179.904 45.6043H128.201L97.3372 17.814H149.039L179.904 45.6043ZM283.308 45.6043H231.606L200.741 17.814H252.443L283.308 45.6043ZM386.712 45.6043H335.01L304.145 17.814H355.847L386.712 45.6043ZM490.116 45.6043H438.414L407.549 17.814H459.251L490.116 45.6043ZM593.52 45.6043H541.818L510.953 17.814H562.655L593.52 45.6043ZM696.924 45.6043H645.222L614.357 17.814H666.059L696.924 45.6043ZM800.328 45.6043H748.626L717.761 17.814H769.463L800.328 45.6043ZM903.732 45.6043H852.03L821.165 17.814H872.867L903.732 45.6043ZM1007.14 45.6043H955.434L924.569 17.814H976.271L1007.14 45.6043ZM1084.69 45.6043H1058.84L1027.97 17.814H1053.82L1084.69 45.6043Z" fill="#FF1818"/>
<path d="M1125.03 32.0658L1098.36 59.8355L1036.68 4.296L1125.03 32.0658Z" fill="#FF1818"/>
</svg>
