<svg width="148" height="33" viewBox="0 0 148 33" fill="none" xmlns="http://www.w3.org/2000/svg">
<mask id="mask0_118_363" style="mask-type:alpha" maskUnits="userSpaceOnUse" x="0" y="-2" width="148" height="37">
<path d="M0.364258 17.5H147.864" stroke="black" stroke-width="1.5"/>
<path d="M0.364258 8.5H147.864" stroke="black" stroke-width="1.5"/>
<path d="M0.364258 27H147.864" stroke="black" stroke-width="1.5"/>
<path d="M0.364258 3.5H147.864" stroke="black" stroke-width="1.5"/>
<path d="M0.364258 22H147.864" stroke="black" stroke-width="1.5"/>
<path d="M0.364258 13H147.864" stroke="black" stroke-width="1.5"/>
<path d="M0.364258 31.5H147.864" stroke="black" stroke-width="1.5"/>
<path d="M0.364258 1.5H147.864" stroke="black" stroke-width="1.5"/>
<path d="M0.364258 20H147.864" stroke="black" stroke-width="1.5"/>
<path d="M0.364258 11H147.864" stroke="black" stroke-width="1.5"/>
<path d="M0.364258 29.5H147.864" stroke="black" stroke-width="1.5"/>
<path d="M0.364258 6H147.864" stroke="black" stroke-width="1.5"/>
<path d="M0.364258 24.5H147.864" stroke="black" stroke-width="1.5"/>
<path d="M0.364258 15.5H147.864" stroke="black" stroke-width="1.5"/>
</mask>
<g mask="url(#mask0_118_363)">
<path d="M124.457 31.9905V0H131.412V31.9905H124.457Z" fill="#75FF86"/>
<path d="M103.85 26.5092C104.854 26.5092 105.763 26.4664 106.575 26.3809C107.387 26.2741 108.028 26.1245 108.498 25.9322C109.652 25.4834 110.646 24.8103 111.479 23.9127C112.184 23.2075 112.783 22.139 113.274 20.7073C113.701 19.361 113.915 17.9078 113.915 16.3479C114.001 12.8432 113.135 10.1613 111.319 8.30214C109.652 6.44298 107.141 5.49202 103.786 5.44928H97.5353V26.5092H103.85ZM104.235 31.9905H90.6436V0H104.042C106.778 0 108.84 0.213698 110.229 0.641092C111.768 1.02575 113.21 1.74163 114.556 2.78875C116.48 4.24189 117.922 6.10106 118.884 8.36625C119.931 10.4819 120.433 13.0783 120.39 16.1555C120.39 19.0832 119.824 21.6582 118.691 23.8807C117.623 26.1886 116.052 28.1012 113.979 29.6185C112.74 30.4946 111.436 31.1037 110.069 31.4456C108.701 31.8089 106.756 31.9905 104.235 31.9905Z" fill="#75FF86"/>
<path d="M68.7042 14.8413H76.4614C78 14.7985 79.2074 14.4353 80.0836 13.7514C80.6178 13.3027 80.9811 12.8112 81.1734 12.2769C81.3871 11.7213 81.5047 10.9413 81.526 9.93693C81.5047 8.8257 81.0559 7.87475 80.1797 7.08407C79.3463 6.37887 78.171 5.97284 76.6537 5.86599H68.7042V14.8413ZM68.7042 31.9905H62.8061V21.2522H36.1411V14.8413H62.8702V0H75.66C79.2288 0 82.071 0.854789 84.1866 2.56437C86.0244 4.08162 87.0715 6.11174 87.3279 8.65474C87.4348 10.6849 87.392 12.1166 87.1997 12.9501C87.0074 13.7835 86.6868 14.8092 86.2381 16.0273C85.6397 17.1385 84.7956 18.0895 83.7057 18.8802C82.6373 19.6708 81.5367 20.2692 80.4041 20.6752L86.7189 31.9905H80.2118L74.1855 21.0278H68.7042V31.9905Z" fill="#75FF86"/>
<path d="M44.8749 0V6.05832H20.2997V31.9905H13.5362V6.05832H2.36426V0H44.8749Z" fill="#75FF86"/>
<path fill-rule="evenodd" clip-rule="evenodd" d="M25.6519 32L38.6489 0H46.4948L59.4919 32H51.8017L42.5719 9.27534L33.342 32H25.6519Z" fill="#75FF86"/>
</g>
</svg>
