<svg width="322" height="78" viewBox="0 0 322 78" fill="none" xmlns="http://www.w3.org/2000/svg">
<path d="M0.964258 5.94L0.964258 4.4H11.1643V5.94H0.964258ZM5.26426 18L5.26426 5.12H6.86426L6.86426 18H5.26426ZM12.3905 10.3C12.3905 9.36667 12.4972 8.52667 12.7105 7.78C12.9372 7.02 13.2638 6.38 13.6905 5.86C14.1172 5.32667 14.6505 4.92 15.2905 4.64C15.9305 4.34667 16.6638 4.2 17.4905 4.2C18.3172 4.2 19.0438 4.34667 19.6705 4.64C20.3105 4.92 20.8438 5.32667 21.2705 5.86C21.7105 6.38 22.0372 7.02 22.2505 7.78C22.4772 8.52667 22.5905 9.36667 22.5905 10.3V12.1C22.5905 13.02 22.4772 13.86 22.2505 14.62C22.0372 15.3667 21.7105 16.0067 21.2705 16.54C20.8438 17.0733 20.3105 17.4867 19.6705 17.78C19.0438 18.06 18.3172 18.2 17.4905 18.2C16.6638 18.2 15.9305 18.06 15.2905 17.78C14.6505 17.4867 14.1172 17.0733 13.6905 16.54C13.2638 16.0067 12.9372 15.3667 12.7105 14.62C12.4972 13.8733 12.3905 13.0333 12.3905 12.1V10.3ZM13.9705 10.3V12.1C13.9705 12.78 14.0372 13.4 14.1705 13.96C14.3038 14.5067 14.5105 14.98 14.7905 15.38C15.0838 15.7667 15.4505 16.0667 15.8905 16.28C16.3305 16.4933 16.8638 16.6 17.4905 16.6C18.1172 16.6 18.6505 16.4933 19.0905 16.28C19.5305 16.0667 19.8905 15.7667 20.1705 15.38C20.4505 14.98 20.6572 14.5067 20.7905 13.96C20.9238 13.4 20.9905 12.78 20.9905 12.1V10.3C20.9905 9.62 20.9238 9.00667 20.7905 8.46C20.6572 7.9 20.4505 7.42667 20.1705 7.04C19.8905 6.64 19.5305 6.33333 19.0905 6.12C18.6505 5.90667 18.1172 5.8 17.4905 5.8C16.8638 5.8 16.3305 5.90667 15.8905 6.12C15.4505 6.33333 15.0838 6.64 14.7905 7.04C14.5105 7.42667 14.3038 7.9 14.1705 8.46C14.0372 9.00667 13.9705 9.62 13.9705 10.3ZM23.7963 20.38V19.02H33.9963V20.38H23.7963ZM40.3979 20.38V19.02H50.5979V20.38H40.3979ZM56.9994 20.38V19.02L67.1994 19.02V20.38L56.9994 20.38ZM73.601 20.38V19.02H83.801V20.38H73.601ZM90.2025 4.38H91.8025V17.98H90.2025V4.38ZM100.403 4.38L90.8625 14V11.66L98.1825 4.38H100.403ZM100.403 18H98.3825L92.6025 10.96L93.7225 9.78L100.403 18ZM101.609 18V4.4H103.209V18H101.609ZM102.529 5.94V4.4H110.889V5.94H102.529ZM102.529 18V16.44H110.889V18H102.529ZM102.529 11.98V10.42H110.089V11.98H102.529ZM112.956 18V4.4H114.556V18H112.956ZM123.156 18V4.4H124.756V18H123.156ZM124.756 18H123.156L112.956 4.94V4.4H114.556L124.756 17.46V18ZM125.984 10.3C125.984 9.36667 126.091 8.52667 126.304 7.78C126.531 7.02 126.858 6.38 127.284 5.86C127.711 5.32667 128.244 4.92 128.884 4.64C129.524 4.34667 130.258 4.2 131.084 4.2C131.911 4.2 132.638 4.34667 133.264 4.64C133.904 4.92 134.438 5.32667 134.864 5.86C135.304 6.38 135.631 7.02 135.844 7.78C136.071 8.52667 136.184 9.36667 136.184 10.3V12.1C136.184 13.02 136.071 13.86 135.844 14.62C135.631 15.3667 135.304 16.0067 134.864 16.54C134.438 17.0733 133.904 17.4867 133.264 17.78C132.638 18.06 131.911 18.2 131.084 18.2C130.258 18.2 129.524 18.06 128.884 17.78C128.244 17.4867 127.711 17.0733 127.284 16.54C126.858 16.0067 126.531 15.3667 126.304 14.62C126.091 13.8733 125.984 13.0333 125.984 12.1V10.3ZM127.564 10.3V12.1C127.564 12.78 127.631 13.4 127.764 13.96C127.898 14.5067 128.104 14.98 128.384 15.38C128.678 15.7667 129.044 16.0667 129.484 16.28C129.924 16.4933 130.458 16.6 131.084 16.6C131.711 16.6 132.244 16.4933 132.684 16.28C133.124 16.0667 133.484 15.7667 133.764 15.38C134.044 14.98 134.251 14.5067 134.384 13.96C134.518 13.4 134.584 12.78 134.584 12.1V10.3C134.584 9.62 134.518 9.00667 134.384 8.46C134.251 7.9 134.044 7.42667 133.764 7.04C133.484 6.64 133.124 6.33333 132.684 6.12C132.244 5.90667 131.711 5.8 131.084 5.8C130.458 5.8 129.924 5.90667 129.484 6.12C129.044 6.33333 128.678 6.64 128.384 7.04C128.104 7.42667 127.898 7.9 127.764 8.46C127.631 9.00667 127.564 9.62 127.564 10.3ZM137.39 18V4.4H138.99V18H137.39ZM148.19 18V4.4H149.79V18H148.19ZM137.69 4.4H139.25L144.37 18H142.81L137.69 4.4ZM147.93 4.4H149.49L144.37 18H142.81L147.93 4.4ZM150.984 18V16.44H161.184V18H150.984ZM150.984 5.94V4.4H161.184V5.94H150.984ZM155.284 17.34V5H156.884V17.34H155.284ZM172.57 12.9C172.503 13.7133 172.343 14.4467 172.09 15.1C171.85 15.7533 171.517 16.3133 171.09 16.78C170.677 17.2333 170.17 17.5867 169.57 17.84C168.97 18.08 168.283 18.2 167.51 18.2C166.683 18.2 165.95 18.06 165.31 17.78C164.67 17.4867 164.137 17.0733 163.71 16.54C163.283 16.0067 162.957 15.3667 162.73 14.62C162.517 13.8733 162.41 13.0333 162.41 12.1V10.3C162.41 9.36667 162.517 8.52667 162.73 7.78C162.957 7.02 163.283 6.38 163.71 5.86C164.137 5.32667 164.67 4.92 165.31 4.64C165.95 4.34667 166.683 4.2 167.51 4.2C169.057 4.2 170.25 4.68 171.09 5.64C171.943 6.58667 172.437 7.87333 172.57 9.5H170.99C170.937 8.94 170.83 8.43333 170.67 7.98C170.523 7.52667 170.31 7.14 170.03 6.82C169.75 6.48667 169.397 6.23333 168.97 6.06C168.557 5.88667 168.07 5.8 167.51 5.8C166.883 5.8 166.35 5.90667 165.91 6.12C165.47 6.33333 165.103 6.64 164.81 7.04C164.53 7.42667 164.323 7.9 164.19 8.46C164.057 9.00667 163.99 9.62 163.99 10.3V12.1C163.99 12.78 164.057 13.4 164.19 13.96C164.323 14.5067 164.53 14.98 164.81 15.38C165.103 15.7667 165.47 16.0667 165.91 16.28C166.35 16.4933 166.883 16.6 167.51 16.6C168.07 16.6 168.557 16.5133 168.97 16.34C169.397 16.1533 169.75 15.9 170.03 15.58C170.31 15.26 170.523 14.8733 170.67 14.42C170.83 13.9667 170.937 13.46 170.99 12.9H172.57ZM184.927 9.18H183.327C183.327 8.68667 183.253 8.24667 183.107 7.86C182.96 7.46 182.74 7.12 182.447 6.84C182.167 6.54667 181.813 6.32667 181.387 6.18C180.973 6.02 180.5 5.94 179.967 5.94C178.887 5.94 178.093 6.12667 177.587 6.5C177.08 6.87333 176.827 7.44667 176.827 8.22C176.827 8.79333 177.033 9.20667 177.447 9.46C177.86 9.7 178.38 9.88 179.007 10C179.633 10.12 180.307 10.22 181.027 10.3C181.76 10.3667 182.433 10.52 183.047 10.76C183.673 11 184.193 11.3667 184.607 11.86C185.02 12.3533 185.227 13.0733 185.227 14.02C185.227 14.6867 185.093 15.2733 184.827 15.78C184.573 16.2733 184.213 16.6867 183.747 17.02C183.293 17.34 182.747 17.5867 182.107 17.76C181.467 17.92 180.767 18 180.007 18C179.247 18 178.553 17.8667 177.927 17.6C177.313 17.3333 176.793 16.9733 176.367 16.52C175.94 16.0667 175.607 15.54 175.367 14.94C175.14 14.3267 175.027 13.6867 175.027 13.02H176.627C176.627 14.06 176.94 14.8933 177.567 15.52C178.207 16.1333 179.087 16.44 180.207 16.44C181.327 16.44 182.173 16.2267 182.747 15.8C183.333 15.3733 183.627 14.7133 183.627 13.82C183.627 13.2067 183.42 12.7667 183.007 12.5C182.593 12.22 182.073 12.0133 181.447 11.88C180.833 11.7333 180.16 11.62 179.427 11.54C178.707 11.4467 178.033 11.2867 177.407 11.06C176.78 10.8333 176.26 10.4867 175.847 10.02C175.433 9.55333 175.227 8.87333 175.227 7.98C175.227 7.36667 175.347 6.84 175.587 6.4C175.827 5.94667 176.153 5.57333 176.567 5.28C176.993 4.98667 177.5 4.76667 178.087 4.62C178.673 4.47333 179.313 4.4 180.007 4.4C180.767 4.4 181.453 4.52667 182.067 4.78C182.68 5.02 183.193 5.35333 183.607 5.78C184.033 6.20667 184.36 6.71333 184.587 7.3C184.813 7.88667 184.927 8.51333 184.927 9.18ZM186.101 20.38V19.02L196.301 19.02V20.38L186.101 20.38ZM202.703 20.38V19.02H212.903V20.38H202.703ZM219.304 20.38V19.02H229.504V20.38H219.304ZM235.906 4.4H237.506V12.78C237.506 13.3267 237.586 13.84 237.746 14.32C237.906 14.7867 238.132 15.1867 238.426 15.52C238.732 15.8533 239.092 16.12 239.506 16.32C239.919 16.5067 240.386 16.6 240.906 16.6C241.426 16.6 241.906 16.5067 242.346 16.32C242.786 16.1333 243.166 15.8733 243.486 15.54C243.806 15.1933 244.052 14.7867 244.226 14.32C244.412 13.8533 244.506 13.34 244.506 12.78V4.4H246.106V12.78C246.106 13.5533 245.972 14.2733 245.706 14.94C245.452 15.5933 245.092 16.1667 244.626 16.66C244.172 17.14 243.626 17.52 242.986 17.8C242.359 18.0667 241.672 18.2 240.926 18.2C240.179 18.2 239.499 18.0667 238.886 17.8C238.272 17.52 237.746 17.14 237.306 16.66C236.866 16.1667 236.519 15.5933 236.266 14.94C236.026 14.2733 235.906 13.5533 235.906 12.78V4.4ZM257.212 9.18H255.612C255.612 8.68667 255.539 8.24667 255.392 7.86C255.245 7.46 255.025 7.12 254.732 6.84C254.452 6.54667 254.099 6.32667 253.672 6.18C253.259 6.02 252.785 5.94 252.252 5.94C251.172 5.94 250.379 6.12667 249.872 6.5C249.365 6.87333 249.112 7.44667 249.112 8.22C249.112 8.79333 249.319 9.20667 249.732 9.46C250.145 9.7 250.665 9.88 251.292 10C251.919 10.12 252.592 10.22 253.312 10.3C254.045 10.3667 254.719 10.52 255.332 10.76C255.959 11 256.479 11.3667 256.892 11.86C257.305 12.3533 257.512 13.0733 257.512 14.02C257.512 14.6867 257.379 15.2733 257.112 15.78C256.859 16.2733 256.499 16.6867 256.032 17.02C255.579 17.34 255.032 17.5867 254.392 17.76C253.752 17.92 253.052 18 252.292 18C251.532 18 250.839 17.8667 250.212 17.6C249.599 17.3333 249.079 16.9733 248.652 16.52C248.225 16.0667 247.892 15.54 247.652 14.94C247.425 14.3267 247.312 13.6867 247.312 13.02H248.912C248.912 14.06 249.225 14.8933 249.852 15.52C250.492 16.1333 251.372 16.44 252.492 16.44C253.612 16.44 254.459 16.2267 255.032 15.8C255.619 15.3733 255.912 14.7133 255.912 13.82C255.912 13.2067 255.705 12.7667 255.292 12.5C254.879 12.22 254.359 12.0133 253.732 11.88C253.119 11.7333 252.445 11.62 251.712 11.54C250.992 11.4467 250.319 11.2867 249.692 11.06C249.065 10.8333 248.545 10.4867 248.132 10.02C247.719 9.55333 247.512 8.87333 247.512 7.98C247.512 7.36667 247.632 6.84 247.872 6.4C248.112 5.94667 248.439 5.57333 248.852 5.28C249.279 4.98667 249.785 4.76667 250.372 4.62C250.959 4.47333 251.599 4.4 252.292 4.4C253.052 4.4 253.739 4.52667 254.352 4.78C254.965 5.02 255.479 5.35333 255.892 5.78C256.319 6.20667 256.645 6.71333 256.872 7.3C257.099 7.88667 257.212 8.51333 257.212 9.18ZM258.386 18V4.4H259.986V18H258.386ZM259.306 5.94V4.4H267.666V5.94H259.306ZM259.306 18V16.44H267.666V18H259.306ZM259.306 11.98V10.42H266.866V11.98H259.306ZM280.194 18H278.214L273.874 12.28H275.854L280.194 18ZM269.734 4.4H271.334V18H269.734V4.4ZM270.654 11.02H275.434C276.34 11.02 277.047 10.8133 277.554 10.4C278.074 9.98667 278.334 9.37333 278.334 8.56C278.334 7.76 278.074 7.13333 277.554 6.68C277.047 6.22667 276.34 6 275.434 6L270.654 6V4.4L275.734 4.4C276.32 4.4 276.867 4.50667 277.374 4.72C277.88 4.93333 278.32 5.23333 278.694 5.62C279.08 5.99333 279.38 6.43333 279.594 6.94C279.82 7.43333 279.934 7.97333 279.934 8.56C279.934 9.13333 279.827 9.66667 279.614 10.16C279.4 10.6533 279.1 11.08 278.714 11.44C278.34 11.8 277.9 12.0867 277.394 12.3C276.887 12.5 276.334 12.6 275.734 12.6H270.654V11.02Z" fill="#F6BF1D"/>
<path d="M0.964258 46.38V45.02H11.1643V46.38H0.964258ZM17.5658 46.38V45.02H27.7658V46.38H17.5658ZM34.1674 46.38V45.02H44.3674V46.38H34.1674ZM50.7689 46.38V45.02H60.9689V46.38H50.7689ZM67.3705 46.38V45.02H77.5705V46.38H67.3705ZM83.9721 46.38V45.02H94.1721V46.38H83.9721ZM100.574 46.38V45.02H110.774V46.38H100.574ZM117.175 46.38V45.02H127.375V46.38H117.175ZM133.777 46.38V45.02H143.977V46.38H133.777ZM150.378 46.38V45.02H160.578V46.38H150.378ZM176.88 35.18H175.28C175.28 34.6867 175.207 34.2467 175.06 33.86C174.913 33.46 174.693 33.12 174.4 32.84C174.12 32.5467 173.767 32.3267 173.34 32.18C172.927 32.02 172.453 31.94 171.92 31.94C170.84 31.94 170.047 32.1267 169.54 32.5C169.033 32.8733 168.78 33.4467 168.78 34.22C168.78 34.7933 168.987 35.2067 169.4 35.46C169.813 35.7 170.333 35.88 170.96 36C171.587 36.12 172.26 36.22 172.98 36.3C173.713 36.3667 174.387 36.52 175 36.76C175.627 37 176.147 37.3667 176.56 37.86C176.973 38.3533 177.18 39.0733 177.18 40.02C177.18 40.6867 177.047 41.2733 176.78 41.78C176.527 42.2733 176.167 42.6867 175.7 43.02C175.247 43.34 174.7 43.5867 174.06 43.76C173.42 43.92 172.72 44 171.96 44C171.2 44 170.507 43.8667 169.88 43.6C169.267 43.3333 168.747 42.9733 168.32 42.52C167.893 42.0667 167.56 41.54 167.32 40.94C167.093 40.3267 166.98 39.6867 166.98 39.02H168.58C168.58 40.06 168.893 40.8933 169.52 41.52C170.16 42.1333 171.04 42.44 172.16 42.44C173.28 42.44 174.127 42.2267 174.7 41.8C175.287 41.3733 175.58 40.7133 175.58 39.82C175.58 39.2067 175.373 38.7667 174.96 38.5C174.547 38.22 174.027 38.0133 173.4 37.88C172.787 37.7333 172.113 37.62 171.38 37.54C170.66 37.4467 169.987 37.2867 169.36 37.06C168.733 36.8333 168.213 36.4867 167.8 36.02C167.387 35.5533 167.18 34.8733 167.18 33.98C167.18 33.3667 167.3 32.84 167.54 32.4C167.78 31.9467 168.107 31.5733 168.52 31.28C168.947 30.9867 169.453 30.7667 170.04 30.62C170.627 30.4733 171.267 30.4 171.96 30.4C172.72 30.4 173.407 30.5267 174.02 30.78C174.633 31.02 175.147 31.3533 175.56 31.78C175.987 32.2067 176.313 32.7133 176.54 33.3C176.767 33.8867 176.88 34.5133 176.88 35.18ZM171.36 29H172.72V31H171.36V29ZM171.36 43.4H172.72V45.4H171.36V43.4ZM178.386 31.94V30.4H188.586V31.94H178.386ZM182.686 44V31.12H184.286V44H182.686ZM191.932 40.44V38.88H197.832V40.44H191.932ZM189.792 44L193.952 30.4H194.892H195.512L194.892 32.4L191.452 44H189.792ZM195.832 30.4L199.992 44H198.332L194.892 32.4L194.272 30.4H194.892H195.832ZM212.479 44H210.499L206.159 38.28H208.139L212.479 44ZM202.019 30.4H203.619V44H202.019V30.4ZM202.939 37.02H207.719C208.626 37.02 209.332 36.8133 209.839 36.4C210.359 35.9867 210.619 35.3733 210.619 34.56C210.619 33.76 210.359 33.1333 209.839 32.68C209.332 32.2267 208.626 32 207.719 32H202.939V30.4H208.019C208.606 30.4 209.152 30.5067 209.659 30.72C210.166 30.9333 210.606 31.2333 210.979 31.62C211.366 31.9933 211.666 32.4333 211.879 32.94C212.106 33.4333 212.219 33.9733 212.219 34.56C212.219 35.1333 212.112 35.6667 211.899 36.16C211.686 36.6533 211.386 37.08 210.999 37.44C210.626 37.8 210.186 38.0867 209.679 38.3C209.172 38.5 208.619 38.6 208.019 38.6H202.939V37.02ZM214.46 44V30.4H216.06V44H214.46ZM215.38 44V42.42H218.64C220.134 42.42 221.24 41.9933 221.96 41.14C222.694 40.2867 223.06 38.9867 223.06 37.24C223.06 35.4933 222.694 34.1867 221.96 33.32C221.24 32.44 220.134 32 218.64 32H215.38V30.4H218.94C219.714 30.4 220.447 30.5333 221.14 30.8C221.834 31.0667 222.44 31.48 222.96 32.04C223.48 32.6 223.894 33.3133 224.2 34.18C224.507 35.0333 224.66 36.0533 224.66 37.24C224.66 38.4267 224.507 39.4467 224.2 40.3C223.894 41.1533 223.48 41.8533 222.96 42.4C222.44 42.9467 221.834 43.3533 221.14 43.62C220.447 43.8733 219.714 44 218.94 44H215.38ZM229.07 44V42.44H239.27V44H229.07ZM229.07 31.94V30.4H239.27V31.94H229.07ZM233.37 43.34V31H234.97V43.34H233.37Z" fill="#F6BF1D"/>
<path d="M0.964258 75.38L0.964258 74.02H11.1643V75.38H0.964258ZM17.5658 75.38V74.02H27.7658V75.38H17.5658ZM181.258 73H179.036V68.5556H181.258V73ZM190.147 61.8889H187.925V57.4444H190.147V61.8889ZM183.481 68.5556H181.258V66.3333H183.481V68.5556ZM185.703 66.3333H183.481V64.1111H185.703V66.3333ZM187.925 64.1111H185.703V61.8889H187.925V64.1111ZM194.598 73H192.376V68.5556H194.598V73ZM203.487 61.8889H201.265V57.4444H203.487V61.8889ZM196.82 68.5556H194.598V66.3333H196.82V68.5556ZM199.043 66.3333H196.82V64.1111H199.043V66.3333ZM201.265 64.1111H199.043V61.8889H201.265V64.1111ZM207.938 73H205.716V68.5556H207.938V73ZM216.827 61.8889H214.605V57.4444H216.827V61.8889ZM210.16 68.5556H207.938V66.3333H210.16V68.5556ZM212.382 66.3333H210.16V64.1111H212.382V66.3333ZM214.605 64.1111H212.382V61.8889H214.605V64.1111ZM221.278 73H219.056V68.5556H221.278V73ZM230.167 61.8889H227.945V57.4444H230.167V61.8889ZM223.5 68.5556H221.278V66.3333H223.5V68.5556ZM225.722 66.3333H223.5V64.1111H225.722V66.3333ZM227.945 64.1111H225.722V61.8889H227.945V64.1111Z" fill="#F6BF1D"/>
</svg>
