<svg width="241" height="53" viewBox="0 0 241 53" fill="none" xmlns="http://www.w3.org/2000/svg">
<path d="M239.764 20.7618V19.4018H229.564V20.7618H239.764ZM223.163 20.7618V19.4018H212.963V20.7618H223.163ZM206.561 20.7618V19.4018H196.361V20.7618H206.561ZM189.96 20.7618V19.4018H179.76V20.7618H189.96ZM173.358 20.7618V19.4018H163.158V20.7618H173.358ZM156.756 20.7618V19.4018H146.556V20.7618H156.756ZM140.155 20.7618V19.4018H129.955V20.7618H140.155ZM123.553 20.7618V19.4018H113.353V20.7618H123.553ZM106.952 20.7618V19.4018H96.7518V20.7618H106.952ZM90.3502 20.7618V19.4018H80.1502V20.7618H90.3502ZM63.8486 9.56184H65.4486C65.4486 9.0685 65.522 8.6285 65.6686 8.24184C65.8153 7.84184 66.0353 7.50184 66.3286 7.22184C66.6086 6.9285 66.962 6.7085 67.3886 6.56184C67.802 6.40184 68.2753 6.32184 68.8086 6.32184C69.8886 6.32184 70.682 6.5085 71.1886 6.88183C71.6953 7.25517 71.9486 7.8285 71.9486 8.60184C71.9486 9.17517 71.742 9.5885 71.3286 9.84184C70.9153 10.0818 70.3953 10.2618 69.7686 10.3818C69.142 10.5018 68.4686 10.6018 67.7486 10.6818C67.0153 10.7485 66.342 10.9018 65.7286 11.1418C65.102 11.3818 64.582 11.7485 64.1686 12.2418C63.7553 12.7352 63.5486 13.4552 63.5486 14.4018C63.5486 15.0685 63.682 15.6552 63.9486 16.1618C64.202 16.6552 64.562 17.0685 65.0286 17.4018C65.482 17.7218 66.0286 17.9685 66.6686 18.1418C67.3086 18.3018 68.0086 18.3818 68.7686 18.3818C69.5286 18.3818 70.222 18.2485 70.8486 17.9818C71.462 17.7152 71.982 17.3552 72.4086 16.9018C72.8353 16.4485 73.1686 15.9218 73.4086 15.3218C73.6353 14.7085 73.7486 14.0685 73.7486 13.4018H72.1486C72.1486 14.4418 71.8353 15.2752 71.2086 15.9018C70.5686 16.5152 69.6886 16.8218 68.5686 16.8218C67.4486 16.8218 66.602 16.6085 66.0286 16.1818C65.442 15.7552 65.1486 15.0952 65.1486 14.2018C65.1486 13.5885 65.3553 13.1485 65.7686 12.8818C66.182 12.6018 66.702 12.3952 67.3286 12.2618C67.942 12.1152 68.6153 12.0018 69.3486 11.9218C70.0686 11.8285 70.742 11.6685 71.3686 11.4418C71.9953 11.2152 72.5153 10.8685 72.9286 10.4018C73.342 9.93517 73.5486 9.25517 73.5486 8.36184C73.5486 7.7485 73.4286 7.22183 73.1886 6.78184C72.9486 6.3285 72.622 5.95517 72.2086 5.66184C71.782 5.3685 71.2753 5.1485 70.6886 5.00184C70.102 4.85517 69.462 4.78184 68.7686 4.78184C68.0086 4.78184 67.322 4.9085 66.7086 5.16184C66.0953 5.40184 65.582 5.73517 65.1686 6.16184C64.742 6.5885 64.4153 7.09517 64.1886 7.68184C63.962 8.2685 63.8486 8.89517 63.8486 9.56184ZM69.3686 3.38183H68.0086V5.38184H69.3686V3.38183ZM69.3686 17.7818H68.0086V19.7818H69.3686V17.7818ZM62.3424 6.32184V4.78184H52.1424V6.32184H62.3424ZM58.0424 18.3818V5.50183H56.4424V18.3818H58.0424ZM48.7961 14.8218V13.2618H42.8961V14.8218H48.7961ZM50.9361 18.3818L46.7761 4.78184H45.8361H45.2161L45.8361 6.78184L49.2761 18.3818H50.9361ZM44.8961 4.78184L40.7361 18.3818H42.3961L45.8361 6.78184L46.4561 4.78184H45.8361H44.8961ZM28.2496 18.3818H30.2296L34.5696 12.6618H32.5896L28.2496 18.3818ZM38.7096 4.78184H37.1096V18.3818H38.7096V4.78184ZM37.7896 11.4018H33.0096C32.1029 11.4018 31.3962 11.1952 30.8896 10.7818C30.3696 10.3685 30.1096 9.75517 30.1096 8.94184C30.1096 8.14184 30.3696 7.51517 30.8896 7.06184C31.3962 6.6085 32.1029 6.38184 33.0096 6.38184H37.7896V4.78184H32.7096C32.1229 4.78184 31.5762 4.8885 31.0696 5.10184C30.5629 5.31517 30.1229 5.61517 29.7496 6.00184C29.3629 6.37517 29.0629 6.81517 28.8496 7.32184C28.6229 7.81517 28.5096 8.35517 28.5096 8.94184C28.5096 9.51517 28.6162 10.0485 28.8296 10.5418C29.0429 11.0352 29.3429 11.4618 29.7296 11.8218C30.1029 12.1818 30.5429 12.4685 31.0496 12.6818C31.5562 12.8818 32.1096 12.9818 32.7096 12.9818H37.7896V11.4018ZM26.2682 18.3818V4.78184H24.6682V18.3818H26.2682ZM25.3482 18.3818V16.8018H22.0882C20.5948 16.8018 19.4882 16.3752 18.7682 15.5218C18.0348 14.6685 17.6682 13.3685 17.6682 11.6218C17.6682 9.87517 18.0348 8.5685 18.7682 7.70184C19.4882 6.82184 20.5948 6.38184 22.0882 6.38184H25.3482V4.78184H21.7882C21.0148 4.78184 20.2815 4.91517 19.5882 5.18184C18.8948 5.4485 18.2882 5.86184 17.7682 6.42183C17.2482 6.98183 16.8348 7.69517 16.5282 8.56184C16.2215 9.41517 16.0682 10.4352 16.0682 11.6218C16.0682 12.8085 16.2215 13.8285 16.5282 14.6818C16.8348 15.5352 17.2482 16.2352 17.7682 16.7818C18.2882 17.3285 18.8948 17.7352 19.5882 18.0018C20.2815 18.2552 21.0148 18.3818 21.7882 18.3818H25.3482ZM11.6588 18.3818V16.8218H1.45879V18.3818H11.6588ZM11.6588 6.32184V4.78184H1.45879V6.32184H11.6588ZM7.35879 17.7218V5.38184H5.75879V17.7218H7.35879Z" fill="#F6BF1D"/>
<path d="M239.764 49.7618V48.4018H229.564V49.7618H239.764ZM223.163 49.7618V48.4018H212.963V49.7618H223.163ZM59.4702 47.3818H61.6924V42.9374H59.4702V47.3818ZM50.5813 36.2707H52.8035V31.8263H50.5813V36.2707ZM57.2479 42.9374H59.4702V40.7152H57.2479V42.9374ZM55.0257 40.7152H57.2479V38.4929H55.0257V40.7152ZM52.8035 38.4929H55.0257V36.2707H52.8035V38.4929ZM46.1303 47.3818H48.3525V42.9374H46.1303V47.3818ZM37.2414 36.2707H39.4637V31.8263H37.2414V36.2707ZM43.9081 42.9374H46.1303V40.7152H43.9081V42.9374ZM41.6859 40.7152H43.9081V38.4929H41.6859V40.7152ZM39.4637 38.4929H41.6859V36.2707H39.4637V38.4929ZM32.7905 47.3818H35.0127V42.9374H32.7905V47.3818ZM23.9016 36.2707H26.1238V31.8263H23.9016V36.2707ZM30.5683 42.9374H32.7905V40.7152H30.5683V42.9374ZM28.346 40.7152H30.5683V38.4929H28.346V40.7152ZM26.1238 38.4929H28.346V36.2707H26.1238V38.4929ZM19.4506 47.3818H21.6729V42.9374H19.4506V47.3818ZM10.5617 36.2707H12.784V31.8263H10.5617V36.2707ZM17.2284 42.9374H19.4506V40.7152H17.2284V42.9374ZM15.0062 40.7152H17.2284V38.4929H15.0062V40.7152ZM12.784 38.4929H15.0062V36.2707H12.784V38.4929Z" fill="#F6BF1D"/>
</svg>
