<svg width="145" height="78" viewBox="0 0 145 78" fill="none" xmlns="http://www.w3.org/2000/svg">
<path d="M63.9643 18V16.44H74.1643V18H63.9643ZM68.2643 17.08V4.4H69.8643V17.08H68.2643ZM65.2443 10.04H64.1643V8.44H65.3443C66.0243 8.44 66.5576 8.39333 66.9443 8.3C67.3443 8.20667 67.6376 8.02667 67.8243 7.76C68.0243 7.49333 68.1443 7.11333 68.1843 6.62C68.2376 6.11333 68.2643 5.45333 68.2643 4.64L68.5043 5.9C68.5043 6.63333 68.4509 7.26 68.3443 7.78C68.2509 8.28667 68.0776 8.71333 67.8243 9.06C67.5843 9.39333 67.2509 9.64 66.8243 9.8C66.4109 9.96 65.8843 10.04 65.2443 10.04ZM75.3705 17.98V16.42H85.5705V17.98H75.3705ZM77.3305 9.62H75.7305C75.7305 8.84667 75.8305 8.13333 76.0305 7.48C76.2305 6.81333 76.5305 6.24 76.9305 5.76C77.3305 5.26667 77.8172 4.88667 78.3905 4.62C78.9772 4.34 79.6438 4.2 80.3905 4.2C81.1372 4.2 81.8172 4.30667 82.4305 4.52C83.0438 4.72 83.5638 5.02667 83.9905 5.44C84.4305 5.85333 84.7705 6.36667 85.0105 6.98C85.2505 7.58 85.3705 8.27333 85.3705 9.06C85.3705 9.99333 85.1838 10.76 84.8105 11.36C84.4372 11.96 83.9638 12.4467 83.3905 12.82C82.8172 13.1933 82.1905 13.5067 81.5105 13.76C80.8305 14 80.1772 14.2467 79.5505 14.5C78.9238 14.74 78.3705 15.02 77.8905 15.34C77.4238 15.66 77.1172 16.0867 76.9705 16.62L75.3705 16.44C75.5172 15.6667 75.8238 15.0533 76.2905 14.6C76.7705 14.1333 77.3238 13.7533 77.9505 13.46C78.5772 13.1533 79.2305 12.8933 79.9105 12.68C80.5905 12.4667 81.2172 12.22 81.7905 11.94C82.3638 11.66 82.8372 11.3 83.2105 10.86C83.5838 10.4067 83.7705 9.80667 83.7705 9.06C83.7705 7.91333 83.4638 7.08667 82.8505 6.58C82.2372 6.06 81.4105 5.8 80.3705 5.8C79.8505 5.8 79.3972 5.9 79.0105 6.1C78.6372 6.28667 78.3238 6.54667 78.0705 6.88C77.8172 7.21333 77.6305 7.62 77.5105 8.1C77.3905 8.56667 77.3305 9.07333 77.3305 9.62ZM86.7968 18V15.24H89.5568V18H86.7968ZM90.7811 18V15.24H93.5411V18H90.7811ZM94.7655 18V15.24L97.5255 15.24V18H94.7655ZM98.7499 8.74C98.7499 8.08667 98.8632 7.48667 99.0899 6.94C99.3299 6.38 99.6632 5.9 100.09 5.5C100.53 5.08667 101.057 4.76667 101.67 4.54C102.283 4.31333 102.977 4.2 103.75 4.2C104.577 4.2 105.31 4.34667 105.95 4.64C106.59 4.92 107.123 5.32667 107.55 5.86C107.977 6.38 108.297 7.02 108.51 7.78C108.737 8.52667 108.85 9.36667 108.85 10.3V12.1C108.85 13.0333 108.737 13.8733 108.51 14.62C108.297 15.3667 107.977 16.0067 107.55 16.54C107.123 17.0733 106.59 17.4867 105.95 17.78C105.31 18.06 104.577 18.2 103.75 18.2C102.977 18.2 102.297 18.08 101.71 17.84C101.123 17.6 100.63 17.2733 100.23 16.86C99.8299 16.4333 99.5165 15.9333 99.2899 15.36C99.0765 14.7867 98.9632 14.1667 98.9499 13.5H100.53C100.557 14.3933 100.823 15.1333 101.33 15.72C101.85 16.3067 102.657 16.6 103.75 16.6C104.937 16.6 105.817 16.2133 106.39 15.44C106.977 14.6667 107.27 13.5533 107.27 12.1V10.3C107.27 8.83333 106.977 7.72 106.39 6.96C105.803 6.18667 104.923 5.8 103.75 5.8C102.67 5.8 101.83 6.06667 101.23 6.6C100.63 7.13333 100.33 7.84667 100.33 8.74C100.33 9.64667 100.597 10.34 101.13 10.82C101.663 11.3 102.51 11.54 103.67 11.54C104.23 11.54 104.737 11.4667 105.19 11.32C105.643 11.1733 106.023 10.9667 106.33 10.7C106.637 10.4333 106.857 10.1133 106.99 9.74C107.123 9.36667 107.157 8.96 107.09 8.52L107.59 9.74C107.59 10.1267 107.49 10.5133 107.29 10.9C107.103 11.2733 106.823 11.6133 106.45 11.92C106.077 12.2133 105.61 12.4533 105.05 12.64C104.503 12.8133 103.863 12.9 103.13 12.9C102.41 12.9 101.777 12.8 101.23 12.6C100.683 12.3867 100.223 12.1 99.8499 11.74C99.4899 11.3667 99.2165 10.9267 99.0299 10.42C98.8432 9.91333 98.7499 9.35333 98.7499 8.74ZM110.175 13.94C110.175 12.6733 110.642 11.72 111.575 11.08C112.509 10.44 113.735 10.12 115.255 10.12C116.802 10.12 118.042 10.44 118.975 11.08C119.909 11.72 120.375 12.6733 120.375 13.94C120.375 15.2333 119.909 16.2667 118.975 17.04C118.042 17.8133 116.802 18.2 115.255 18.2C113.735 18.2 112.509 17.8133 111.575 17.04C110.642 16.2667 110.175 15.2333 110.175 13.94ZM111.755 13.66C111.755 14.62 112.049 15.36 112.635 15.88C113.235 16.3867 114.109 16.64 115.255 16.64C116.415 16.64 117.289 16.3867 117.875 15.88C118.475 15.36 118.775 14.62 118.775 13.66C118.775 12.94 118.462 12.3533 117.835 11.9C117.209 11.4467 116.349 11.22 115.255 11.22C114.162 11.22 113.302 11.4467 112.675 11.9C112.062 12.3533 111.755 12.94 111.755 13.66ZM110.755 7.88C110.755 6.74667 111.155 5.85333 111.955 5.2C112.755 4.53333 113.855 4.2 115.255 4.2C116.655 4.2 117.755 4.53333 118.555 5.2C119.355 5.85333 119.755 6.74667 119.755 7.88C119.755 8.4 119.635 8.86 119.395 9.26C119.169 9.64667 118.849 9.97333 118.435 10.24C118.022 10.5067 117.542 10.7133 116.995 10.86C116.449 10.9933 115.869 11.06 115.255 11.06C114.642 11.06 114.062 10.9933 113.515 10.86C112.969 10.7133 112.489 10.5067 112.075 10.24C111.662 9.97333 111.335 9.64667 111.095 9.26C110.869 8.86 110.755 8.4 110.755 7.88ZM112.315 8.06C112.315 8.59333 112.562 9.06 113.055 9.46C113.562 9.86 114.295 10.06 115.255 10.06C116.215 10.06 116.942 9.86 117.435 9.46C117.929 9.06 118.175 8.59333 118.175 8.06C118.175 7.3 117.929 6.72667 117.435 6.34C116.942 5.94 116.215 5.74 115.255 5.74C114.295 5.74 113.562 5.94 113.055 6.34C112.562 6.72667 112.315 7.3 112.315 8.06ZM121.621 20.38V19.02L131.821 19.02V20.38L121.621 20.38ZM133.027 20.38V19.02H143.227V20.38H133.027Z" fill="#F6BF1D"/>
<path d="M11.0361 35.18H9.43613C9.43613 34.6867 9.3628 34.2467 9.21613 33.86C9.06947 33.46 8.84947 33.12 8.55613 32.84C8.27613 32.5467 7.9228 32.3267 7.49613 32.18C7.0828 32.02 6.60947 31.94 6.07613 31.94C4.99613 31.94 4.2028 32.1267 3.69613 32.5C3.18947 32.8733 2.93613 33.4467 2.93613 34.22C2.93613 34.7933 3.1428 35.2067 3.55613 35.46C3.96947 35.7 4.48947 35.88 5.11613 36C5.7428 36.12 6.41613 36.22 7.13613 36.3C7.86947 36.3667 8.5428 36.52 9.15613 36.76C9.7828 37 10.3028 37.3667 10.7161 37.86C11.1295 38.3533 11.3361 39.0733 11.3361 40.02C11.3361 40.6867 11.2028 41.2733 10.9361 41.78C10.6828 42.2733 10.3228 42.6867 9.85613 43.02C9.4028 43.34 8.85613 43.5867 8.21613 43.76C7.57613 43.92 6.87613 44 6.11613 44C5.35613 44 4.6628 43.8667 4.03613 43.6C3.4228 43.3333 2.9028 42.9733 2.47613 42.52C2.04947 42.0667 1.71613 41.54 1.47613 40.94C1.24947 40.3267 1.13613 39.6867 1.13613 39.02H2.73613C2.73613 40.06 3.04947 40.8933 3.67613 41.52C4.31613 42.1333 5.19613 42.44 6.31613 42.44C7.43613 42.44 8.2828 42.2267 8.85613 41.8C9.4428 41.3733 9.73613 40.7133 9.73613 39.82C9.73613 39.2067 9.52947 38.7667 9.11613 38.5C8.7028 38.22 8.1828 38.0133 7.55613 37.88C6.9428 37.7333 6.26947 37.62 5.53613 37.54C4.81613 37.4467 4.1428 37.2867 3.51613 37.06C2.88947 36.8333 2.36947 36.4867 1.95613 36.02C1.5428 35.5533 1.33613 34.8733 1.33613 33.98C1.33613 33.3667 1.45613 32.84 1.69613 32.4C1.93613 31.9467 2.2628 31.5733 2.67613 31.28C3.1028 30.9867 3.60947 30.7667 4.19613 30.62C4.7828 30.4733 5.4228 30.4 6.11613 30.4C6.87613 30.4 7.5628 30.5267 8.17613 30.78C8.78947 31.02 9.3028 31.3533 9.71613 31.78C10.1428 32.2067 10.4695 32.7133 10.6961 33.3C10.9228 33.8867 11.0361 34.5133 11.0361 35.18ZM12.2304 36.3C12.2304 35.3667 12.337 34.5267 12.5504 33.78C12.777 33.02 13.1037 32.38 13.5304 31.86C13.957 31.3267 14.4904 30.92 15.1304 30.64C15.7704 30.3467 16.5037 30.2 17.3304 30.2C18.157 30.2 18.8837 30.3467 19.5104 30.64C20.1504 30.92 20.6837 31.3267 21.1104 31.86C21.5504 32.38 21.877 33.02 22.0904 33.78C22.317 34.5267 22.4304 35.3667 22.4304 36.3V38.1C22.4304 39.02 22.317 39.86 22.0904 40.62C21.877 41.3667 21.5504 42.0067 21.1104 42.54C20.6837 43.0733 20.1504 43.4867 19.5104 43.78C18.8837 44.06 18.157 44.2 17.3304 44.2C16.5037 44.2 15.7704 44.06 15.1304 43.78C14.4904 43.4867 13.957 43.0733 13.5304 42.54C13.1037 42.0067 12.777 41.3667 12.5504 40.62C12.337 39.8733 12.2304 39.0333 12.2304 38.1V36.3ZM13.8104 36.3V38.1C13.8104 38.78 13.877 39.4 14.0104 39.96C14.1437 40.5067 14.3504 40.98 14.6304 41.38C14.9237 41.7667 15.2904 42.0667 15.7304 42.28C16.1704 42.4933 16.7037 42.6 17.3304 42.6C17.957 42.6 18.4904 42.4933 18.9304 42.28C19.3704 42.0667 19.7304 41.7667 20.0104 41.38C20.2904 40.98 20.497 40.5067 20.6304 39.96C20.7637 39.4 20.8304 38.78 20.8304 38.1V36.3C20.8304 35.62 20.7637 35.0067 20.6304 34.46C20.497 33.9 20.2904 33.4267 20.0104 33.04C19.7304 32.64 19.3704 32.3333 18.9304 32.12C18.4904 31.9067 17.957 31.8 17.3304 31.8C16.7037 31.8 16.1704 31.9067 15.7304 32.12C15.2904 32.3333 14.9237 32.64 14.6304 33.04C14.3504 33.4267 14.1437 33.9 14.0104 34.46C13.877 35.0067 13.8104 35.62 13.8104 36.3ZM23.6361 44V30.4H25.2361V44H23.6361ZM24.5561 44V42.44H32.3161V44H24.5561ZM36.2644 40.44V38.88H42.1644V40.44H36.2644ZM34.1244 44L38.2844 30.4H39.2244H39.8444L39.2244 32.4L35.7844 44H34.1244ZM40.1644 30.4L44.3244 44H42.6644L39.2244 32.4L38.6044 30.4H39.2244H40.1644ZM56.811 44H54.831L50.491 38.28H52.471L56.811 44ZM46.351 30.4H47.951V44H46.351V30.4ZM47.271 37.02H52.051C52.9576 37.02 53.6643 36.8133 54.171 36.4C54.691 35.9867 54.951 35.3733 54.951 34.56C54.951 33.76 54.691 33.1333 54.171 32.68C53.6643 32.2267 52.9576 32 52.051 32H47.271V30.4H52.351C52.9376 30.4 53.4843 30.5067 53.991 30.72C54.4976 30.9333 54.9376 31.2333 55.311 31.62C55.6976 31.9933 55.9976 32.4333 56.211 32.94C56.4376 33.4333 56.551 33.9733 56.551 34.56C56.551 35.1333 56.4443 35.6667 56.231 36.16C56.0176 36.6533 55.7176 37.08 55.331 37.44C54.9576 37.8 54.5176 38.0867 54.011 38.3C53.5043 38.5 52.951 38.6 52.351 38.6H47.271V37.02ZM73.8877 35.18H72.2877C72.2877 34.6867 72.2144 34.2467 72.0677 33.86C71.921 33.46 71.701 33.12 71.4077 32.84C71.1277 32.5467 70.7744 32.3267 70.3477 32.18C69.9344 32.02 69.461 31.94 68.9277 31.94C67.8477 31.94 67.0544 32.1267 66.5477 32.5C66.041 32.8733 65.7877 33.4467 65.7877 34.22C65.7877 34.7933 65.9944 35.2067 66.4077 35.46C66.821 35.7 67.341 35.88 67.9677 36C68.5944 36.12 69.2677 36.22 69.9877 36.3C70.721 36.3667 71.3944 36.52 72.0077 36.76C72.6344 37 73.1544 37.3667 73.5677 37.86C73.981 38.3533 74.1877 39.0733 74.1877 40.02C74.1877 40.6867 74.0544 41.2733 73.7877 41.78C73.5344 42.2733 73.1744 42.6867 72.7077 43.02C72.2544 43.34 71.7077 43.5867 71.0677 43.76C70.4277 43.92 69.7277 44 68.9677 44C68.2077 44 67.5144 43.8667 66.8877 43.6C66.2744 43.3333 65.7544 42.9733 65.3277 42.52C64.901 42.0667 64.5677 41.54 64.3277 40.94C64.101 40.3267 63.9877 39.6867 63.9877 39.02H65.5877C65.5877 40.06 65.901 40.8933 66.5277 41.52C67.1677 42.1333 68.0477 42.44 69.1677 42.44C70.2877 42.44 71.1344 42.2267 71.7077 41.8C72.2944 41.3733 72.5877 40.7133 72.5877 39.82C72.5877 39.2067 72.381 38.7667 71.9677 38.5C71.5544 38.22 71.0344 38.0133 70.4077 37.88C69.7944 37.7333 69.121 37.62 68.3877 37.54C67.6677 37.4467 66.9944 37.2867 66.3677 37.06C65.741 36.8333 65.221 36.4867 64.8077 36.02C64.3944 35.5533 64.1877 34.8733 64.1877 33.98C64.1877 33.3667 64.3077 32.84 64.5477 32.4C64.7877 31.9467 65.1144 31.5733 65.5277 31.28C65.9544 30.9867 66.461 30.7667 67.0477 30.62C67.6344 30.4733 68.2744 30.4 68.9677 30.4C69.7277 30.4 70.4144 30.5267 71.0277 30.78C71.641 31.02 72.1544 31.3533 72.5677 31.78C72.9944 32.2067 73.321 32.7133 73.5477 33.3C73.7744 33.8867 73.8877 34.5133 73.8877 35.18ZM79.3619 44V38.4H80.9619V44H79.3619ZM79.3619 38.6L75.0619 30.4H76.6819L80.9219 38.6H79.3619ZM79.4219 38.6L83.6419 30.4H85.2619L80.9619 38.6H79.4219ZM96.3682 35.18H94.7682C94.7682 34.6867 94.6948 34.2467 94.5482 33.86C94.4015 33.46 94.1815 33.12 93.8882 32.84C93.6082 32.5467 93.2548 32.3267 92.8282 32.18C92.4148 32.02 91.9415 31.94 91.4082 31.94C90.3282 31.94 89.5348 32.1267 89.0282 32.5C88.5215 32.8733 88.2682 33.4467 88.2682 34.22C88.2682 34.7933 88.4748 35.2067 88.8882 35.46C89.3015 35.7 89.8215 35.88 90.4482 36C91.0748 36.12 91.7482 36.22 92.4682 36.3C93.2015 36.3667 93.8748 36.52 94.4882 36.76C95.1148 37 95.6348 37.3667 96.0482 37.86C96.4615 38.3533 96.6682 39.0733 96.6682 40.02C96.6682 40.6867 96.5348 41.2733 96.2682 41.78C96.0148 42.2733 95.6548 42.6867 95.1882 43.02C94.7348 43.34 94.1882 43.5867 93.5482 43.76C92.9082 43.92 92.2082 44 91.4482 44C90.6882 44 89.9948 43.8667 89.3682 43.6C88.7548 43.3333 88.2348 42.9733 87.8082 42.52C87.3815 42.0667 87.0482 41.54 86.8082 40.94C86.5815 40.3267 86.4682 39.6867 86.4682 39.02H88.0682C88.0682 40.06 88.3815 40.8933 89.0082 41.52C89.6482 42.1333 90.5282 42.44 91.6482 42.44C92.7682 42.44 93.6148 42.2267 94.1882 41.8C94.7748 41.3733 95.0682 40.7133 95.0682 39.82C95.0682 39.2067 94.8615 38.7667 94.4482 38.5C94.0348 38.22 93.5148 38.0133 92.8882 37.88C92.2748 37.7333 91.6015 37.62 90.8682 37.54C90.1482 37.4467 89.4748 37.2867 88.8482 37.06C88.2215 36.8333 87.7015 36.4867 87.2882 36.02C86.8748 35.5533 86.6682 34.8733 86.6682 33.98C86.6682 33.3667 86.7882 32.84 87.0282 32.4C87.2682 31.9467 87.5948 31.5733 88.0082 31.28C88.4348 30.9867 88.9415 30.7667 89.5282 30.62C90.1148 30.4733 90.7548 30.4 91.4482 30.4C92.2082 30.4 92.8948 30.5267 93.5082 30.78C94.1215 31.02 94.6348 31.3533 95.0482 31.78C95.4748 32.2067 95.8015 32.7133 96.0282 33.3C96.2548 33.8867 96.3682 34.5133 96.3682 35.18ZM107.442 35.18H105.842C105.842 34.6867 105.769 34.2467 105.622 33.86C105.476 33.46 105.256 33.12 104.962 32.84C104.682 32.5467 104.329 32.3267 103.902 32.18C103.489 32.02 103.016 31.94 102.482 31.94C101.402 31.94 100.609 32.1267 100.102 32.5C99.5957 32.8733 99.3424 33.4467 99.3424 34.22C99.3424 34.7933 99.549 35.2067 99.9624 35.46C100.376 35.7 100.896 35.88 101.522 36C102.149 36.12 102.822 36.22 103.542 36.3C104.276 36.3667 104.949 36.52 105.562 36.76C106.189 37 106.709 37.3667 107.122 37.86C107.536 38.3533 107.742 39.0733 107.742 40.02C107.742 40.6867 107.609 41.2733 107.342 41.78C107.089 42.2733 106.729 42.6867 106.262 43.02C105.809 43.34 105.262 43.5867 104.622 43.76C103.982 43.92 103.282 44 102.522 44C101.762 44 101.069 43.8667 100.442 43.6C99.829 43.3333 99.309 42.9733 98.8824 42.52C98.4557 42.0667 98.1224 41.54 97.8824 40.94C97.6557 40.3267 97.5424 39.6867 97.5424 39.02H99.1424C99.1424 40.06 99.4557 40.8933 100.082 41.52C100.722 42.1333 101.602 42.44 102.722 42.44C103.842 42.44 104.689 42.2267 105.262 41.8C105.849 41.3733 106.142 40.7133 106.142 39.82C106.142 39.2067 105.936 38.7667 105.522 38.5C105.109 38.22 104.589 38.0133 103.962 37.88C103.349 37.7333 102.676 37.62 101.942 37.54C101.222 37.4467 100.549 37.2867 99.9224 37.06C99.2957 36.8333 98.7757 36.4867 98.3624 36.02C97.949 35.5533 97.7424 34.8733 97.7424 33.98C97.7424 33.3667 97.8624 32.84 98.1024 32.4C98.3424 31.9467 98.669 31.5733 99.0824 31.28C99.509 30.9867 100.016 30.7667 100.602 30.62C101.189 30.4733 101.829 30.4 102.522 30.4C103.282 30.4 103.969 30.5267 104.582 30.78C105.196 31.02 105.709 31.3533 106.122 31.78C106.549 32.2067 106.876 32.7133 107.102 33.3C107.329 33.8867 107.442 34.5133 107.442 35.18ZM108.617 31.94V30.4H118.817V31.94H108.617ZM112.917 44V31.12H114.517V44H112.917ZM120.023 44V30.4H121.623V44H120.023ZM120.943 31.94V30.4H129.303V31.94H120.943ZM120.943 44V42.44H129.303V44H120.943ZM120.943 37.98V36.42H128.503V37.98H120.943ZM131.371 44V30.4H132.971V44H131.371ZM142.171 44V30.4H143.771V44H142.171ZM131.671 30.4H133.231L138.351 44H136.791L131.671 30.4ZM141.911 30.4H143.471L138.351 44H136.791L141.911 30.4ZM93.3018 61.18H91.7018C91.7018 60.6867 91.6284 60.2467 91.4818 59.86C91.3351 59.46 91.1151 59.12 90.8218 58.84C90.5418 58.5467 90.1884 58.3267 89.7618 58.18C89.3484 58.02 88.8751 57.94 88.3418 57.94C87.2618 57.94 86.4684 58.1267 85.9618 58.5C85.4551 58.8733 85.2018 59.4467 85.2018 60.22C85.2018 60.7933 85.4084 61.2067 85.8218 61.46C86.2351 61.7 86.7551 61.88 87.3818 62C88.0084 62.12 88.6818 62.22 89.4018 62.3C90.1351 62.3667 90.8084 62.52 91.4218 62.76C92.0484 63 92.5684 63.3667 92.9818 63.86C93.3951 64.3533 93.6018 65.0733 93.6018 66.02C93.6018 66.6867 93.4684 67.2733 93.2018 67.78C92.9484 68.2733 92.5884 68.6867 92.1218 69.02C91.6684 69.34 91.1218 69.5867 90.4818 69.76C89.8418 69.92 89.1418 70 88.3818 70C87.6218 70 86.9284 69.8667 86.3018 69.6C85.6884 69.3333 85.1684 68.9733 84.7418 68.52C84.3151 68.0667 83.9818 67.54 83.7418 66.94C83.5151 66.3267 83.4018 65.6867 83.4018 65.02H85.0018C85.0018 66.06 85.3151 66.8933 85.9418 67.52C86.5818 68.1333 87.4618 68.44 88.5818 68.44C89.7018 68.44 90.5484 68.2267 91.1218 67.8C91.7084 67.3733 92.0018 66.7133 92.0018 65.82C92.0018 65.2067 91.7951 64.7667 91.3818 64.5C90.9684 64.22 90.4484 64.0133 89.8218 63.88C89.2084 63.7333 88.5351 63.62 87.8018 63.54C87.0818 63.4467 86.4084 63.2867 85.7818 63.06C85.1551 62.8333 84.6351 62.4867 84.2218 62.02C83.8084 61.5533 83.6018 60.8733 83.6018 59.98C83.6018 59.3667 83.7218 58.84 83.9618 58.4C84.2018 57.9467 84.5284 57.5733 84.9418 57.28C85.3684 56.9867 85.8751 56.7667 86.4618 56.62C87.0484 56.4733 87.6884 56.4 88.3818 56.4C89.1418 56.4 89.8284 56.5267 90.4418 56.78C91.0551 57.02 91.5684 57.3533 91.9818 57.78C92.4084 58.2067 92.7351 58.7133 92.9618 59.3C93.1884 59.8867 93.3018 60.5133 93.3018 61.18ZM94.476 72.38V71.02H104.676V72.38H94.476ZM115.782 61.18H114.182C114.182 60.6867 114.109 60.2467 113.962 59.86C113.816 59.46 113.596 59.12 113.302 58.84C113.022 58.5467 112.669 58.3267 112.242 58.18C111.829 58.02 111.356 57.94 110.822 57.94C109.742 57.94 108.949 58.1267 108.442 58.5C107.936 58.8733 107.682 59.4467 107.682 60.22C107.682 60.7933 107.889 61.2067 108.302 61.46C108.716 61.7 109.236 61.88 109.862 62C110.489 62.12 111.162 62.22 111.882 62.3C112.616 62.3667 113.289 62.52 113.902 62.76C114.529 63 115.049 63.3667 115.462 63.86C115.876 64.3533 116.082 65.0733 116.082 66.02C116.082 66.6867 115.949 67.2733 115.682 67.78C115.429 68.2733 115.069 68.6867 114.602 69.02C114.149 69.34 113.602 69.5867 112.962 69.76C112.322 69.92 111.622 70 110.862 70C110.102 70 109.409 69.8667 108.782 69.6C108.169 69.3333 107.649 68.9733 107.222 68.52C106.796 68.0667 106.462 67.54 106.222 66.94C105.996 66.3267 105.882 65.6867 105.882 65.02H107.482C107.482 66.06 107.796 66.8933 108.422 67.52C109.062 68.1333 109.942 68.44 111.062 68.44C112.182 68.44 113.029 68.2267 113.602 67.8C114.189 67.3733 114.482 66.7133 114.482 65.82C114.482 65.2067 114.276 64.7667 113.862 64.5C113.449 64.22 112.929 64.0133 112.302 63.88C111.689 63.7333 111.016 63.62 110.282 63.54C109.562 63.4467 108.889 63.2867 108.262 63.06C107.636 62.8333 107.116 62.4867 106.702 62.02C106.289 61.5533 106.082 60.8733 106.082 59.98C106.082 59.3667 106.202 58.84 106.442 58.4C106.682 57.9467 107.009 57.5733 107.422 57.28C107.849 56.9867 108.356 56.7667 108.942 56.62C109.529 56.4733 110.169 56.4 110.862 56.4C111.622 56.4 112.309 56.5267 112.922 56.78C113.536 57.02 114.049 57.3533 114.462 57.78C114.889 58.2067 115.216 58.7133 115.442 59.3C115.669 59.8867 115.782 60.5133 115.782 61.18ZM116.956 72.38V71.02H127.156V72.38H116.956ZM133.558 72.38V71.02H143.758V72.38H133.558Z" fill="#F6BF1D"/>
</svg>
