<svg width="197" height="26" viewBox="0 0 197 26" fill="none" xmlns="http://www.w3.org/2000/svg">
<path d="M0.870117 0.23877V25.2388" stroke="#00EEFF"/>
<path d="M3.87012 0.23877V25.2388" stroke="#00EEFF"/>
<path d="M6.87012 0.23877V25.2388" stroke="#00EEFF"/>
<path d="M9.87012 0.23877V25.2388" stroke="#00EEFF"/>
<path d="M12.8701 0.23877V25.2388" stroke="#00EEFF"/>
<path d="M15.8701 0.23877V25.2388" stroke="#00EEFF"/>
<path d="M18.8701 0.23877V25.2388" stroke="#00EEFF"/>
<path d="M21.8701 0.23877V25.2388" stroke="#00EEFF"/>
<path d="M24.8701 0.23877V25.2388" stroke="#00EEFF"/>
<path d="M27.8701 0.23877V25.2388" stroke="#00EEFF"/>
<path d="M30.8701 0.23877V25.2388" stroke="#00EEFF"/>
<path d="M33.8701 0.23877V25.2388" stroke="#00EEFF"/>
<path d="M36.8701 0.23877V25.2388" stroke="#00EEFF"/>
<path d="M39.8701 0.23877V25.2388" stroke="#00EEFF"/>
<path d="M42.8701 0.23877V25.2388" stroke="#00EEFF"/>
<path d="M45.8701 0.23877V25.2388" stroke="#00EEFF"/>
<path d="M48.8701 0.23877V25.2388" stroke="#00EEFF"/>
<path d="M51.8701 0.23877V25.2388" stroke="#00EEFF"/>
<path d="M54.8701 0.23877V25.2388" stroke="#00EEFF"/>
<path d="M57.8701 0.23877V25.2388" stroke="#00EEFF"/>
<path d="M60.8701 0.23877V25.2388" stroke="#00EEFF"/>
<path d="M63.8701 0.23877V25.2388" stroke="#00EEFF"/>
<path d="M66.8701 0.23877V25.2388" stroke="#00EEFF"/>
<path d="M69.8701 0.23877V25.2388" stroke="#00EEFF"/>
<path d="M72.8701 0.23877V25.2388" stroke="#00EEFF"/>
<path d="M75.8701 0.23877V25.2388" stroke="#00EEFF"/>
<path d="M78.8701 0.23877V25.2388" stroke="#00EEFF"/>
<path d="M81.8701 0.23877V25.2388" stroke="#00EEFF"/>
<path d="M84.8701 0.23877V25.2388" stroke="#00EEFF"/>
<path d="M87.8701 0.23877V25.2388" stroke="#00EEFF"/>
<path d="M90.8701 0.23877V25.2388" stroke="#00EEFF"/>
<path d="M93.8701 0.23877V25.2388" stroke="#00EEFF"/>
<path d="M96.8701 0.23877V25.2388" stroke="#00EEFF"/>
<path d="M99.8701 0.23877V25.2388" stroke="#00EEFF"/>
<path d="M102.87 0.23877V25.2388" stroke="#00EEFF"/>
<path d="M105.87 0.23877V25.2388" stroke="#00EEFF"/>
<path d="M108.87 0.23877V25.2388" stroke="#00EEFF"/>
<path d="M111.87 0.23877V25.2388" stroke="#00EEFF"/>
<path d="M114.87 0.23877V25.2388" stroke="#00EEFF"/>
<path d="M117.87 0.23877V25.2388" stroke="#00EEFF"/>
<path d="M120.87 0.23877V25.2388" stroke="#00EEFF"/>
<path d="M123.87 0.23877V25.2388" stroke="#00EEFF"/>
<path d="M126.87 0.23877V25.2388" stroke="#00EEFF"/>
<path d="M129.87 0.23877V25.2388" stroke="#00EEFF"/>
<path d="M132.87 0.23877V25.2388" stroke="#00EEFF"/>
<path d="M135.87 0.23877V25.2388" stroke="#00EEFF"/>
<path d="M138.87 0.23877V25.2388" stroke="#00EEFF"/>
<path d="M141.87 0.23877V25.2388" stroke="#00EEFF"/>
<path d="M144.87 0.23877V25.2388" stroke="#00EEFF"/>
<path d="M147.87 0.23877V25.2388" stroke="#00EEFF"/>
<path d="M150.87 0.23877V25.2388" stroke="#00EEFF"/>
<path d="M153.87 0.23877V25.2388" stroke="#00EEFF"/>
<path d="M156.87 0.23877V25.2388" stroke="#00EEFF"/>
<path d="M159.87 0.23877V25.2388" stroke="#00EEFF"/>
<path d="M162.87 0.23877V25.2388" stroke="#00EEFF"/>
<path d="M165.87 0.23877V25.2388" stroke="#00EEFF"/>
<path d="M168.87 0.23877V25.2388" stroke="#00EEFF"/>
<path d="M171.87 0.23877V25.2388" stroke="#00EEFF"/>
<path d="M174.87 0.23877V25.2388" stroke="#00EEFF"/>
<path d="M177.87 0.23877V25.2388" stroke="#00EEFF"/>
<path d="M180.87 0.23877V25.2388" stroke="#00EEFF"/>
<path d="M183.87 0.23877V25.2388" stroke="#00EEFF"/>
<path d="M186.87 0.23877V25.2388" stroke="#00EEFF"/>
<path d="M189.87 0.23877V25.2388" stroke="#00EEFF"/>
<path d="M192.87 0.23877V25.2388" stroke="#00EEFF"/>
<path d="M195.87 0.23877V25.2388" stroke="#00EEFF"/>
</svg>
