<svg width="132" height="15" viewBox="0 0 132 15" fill="none" xmlns="http://www.w3.org/2000/svg">
<path d="M0.348592 3.06909V13.0924C4.2025 15.2705 8.07491 15.3022 11.9658 13.1876V3.06909H10.8398V12.458C7.66256 14.0176 4.49591 14.0414 1.33983 12.5294V3.06909H0.348592Z" fill="#073D5C"/>
<path d="M22.0844 12.8623L14.8286 2.99756L14.0277 3.60023L22.0527 14.5355L30.0381 3.63988L29.2848 2.99756L22.0844 12.8623ZM23.6546 6.51841C23.6546 6.04262 23.4801 5.62763 23.1312 5.27343C22.777 4.91923 22.3673 4.74213 21.9021 4.74213C21.4527 4.74213 21.0721 4.90865 20.7602 5.24171C20.443 5.57476 20.2844 5.99504 20.2844 6.50255C20.2844 7.01006 20.4509 7.43827 20.784 7.78719C21.1117 8.13081 21.5082 8.30263 21.9734 8.30263C22.4281 8.30263 22.8219 8.12817 23.155 7.77926C23.488 7.42506 23.6546 7.00478 23.6546 6.51841Z" fill="#073D5C"/>
<path d="M43.4395 2.93384H33.4161C31.2381 6.78774 31.2063 10.6602 33.321 14.5511H43.4395V13.425H34.0505C32.491 10.2478 32.4672 7.08115 33.9791 3.92507H43.4395V2.93384Z" fill="#073D5C"/>
<path d="M56.7061 14.5829V4.55955C52.8521 2.38148 48.9797 2.34976 45.0888 4.46439V14.5829H46.2149V5.19393C49.3921 3.6344 52.5587 3.61061 55.7148 5.12256V14.5829H56.7061Z" fill="#073D5C"/>
<path d="M68.8862 13.6235V0H67.8315L67.8395 13.6235H60.5044V6.78795H59.4576V14.6702H77.2681V6.78795H76.2213V13.6235H68.8862Z" fill="#073D5C"/>
<path d="M92.5215 13.7854C92.5215 13.3848 92.424 13.1033 92.2292 12.9409C92.0343 12.7785 91.8015 12.6973 91.5308 12.6973C91.2493 12.6973 91.0111 12.7785 90.8162 12.9409C90.6105 13.1033 90.5077 13.3848 90.5077 13.7854C90.5077 14.1751 90.6105 14.4566 90.8162 14.6299C91.0111 14.8031 91.2493 14.8897 91.5308 14.8897C91.8015 14.8897 92.0343 14.8031 92.2292 14.6299C92.424 14.4566 92.5215 14.1751 92.5215 13.7854Z" fill="#073D5C"/>
<path d="M107.053 3.06909V13.0924C110.907 15.2705 114.779 15.3022 118.67 13.1876V3.06909H117.544V12.458C114.367 14.0176 111.2 14.0414 108.044 12.5294V3.06909H107.053Z" fill="#073D5C"/>
<path d="M132 2.93384H121.977C119.799 6.78774 119.767 10.6602 121.882 14.5511H132V13.425H122.611C121.052 10.2478 121.028 7.08115 122.54 3.92507H132V2.93384Z" fill="#073D5C"/>
</svg>
