<svg width="249" height="15" viewBox="0 0 249 15" fill="none" xmlns="http://www.w3.org/2000/svg">
<path d="M10.8 2.99877V4.65877L0.8 7.73877L0.8 6.05877L10.8 2.99877ZM10.8 11.8788V10.2188L0.8 7.13877L0.8 8.81877L10.8 11.8788ZM12.0653 14.2388L12.0653 11.4788H14.8253L14.8253 14.2388H12.0653ZM16.0497 14.2388V11.4788H18.8097V14.2388H16.0497ZM20.2141 2.99877V4.65877L30.2141 7.73877V6.05877L20.2141 2.99877ZM20.2141 11.8788V10.2188L30.2141 7.13877V8.81877L20.2141 11.8788ZM36.6547 14.2388V0.638769H38.2547V14.2388H36.6547ZM37.5747 8.83877V7.25877H42.3547C43.2614 7.25877 43.968 7.0521 44.4747 6.63877C44.9947 6.22544 45.2547 5.6121 45.2547 4.79877C45.2547 3.99877 44.9947 3.3721 44.4747 2.91877C43.968 2.46544 43.2614 2.23877 42.3547 2.23877H37.5747V0.638769H42.6547C43.2414 0.638769 43.788 0.745436 44.2947 0.958769C44.8014 1.1721 45.2414 1.4721 45.6147 1.85877C46.0014 2.2321 46.3014 2.6721 46.5147 3.17877C46.7414 3.6721 46.8547 4.2121 46.8547 4.79877C46.8547 5.3721 46.748 5.90544 46.5347 6.39877C46.3214 6.8921 46.0214 7.31877 45.6347 7.67877C45.2614 8.03877 44.8214 8.32544 44.3147 8.53877C43.808 8.73877 43.2547 8.83877 42.6547 8.83877H37.5747ZM59.0288 14.2388H57.0488L52.7088 8.51877H54.6888L59.0288 14.2388ZM48.5688 0.638769H50.1688V14.2388H48.5688V0.638769ZM49.4888 7.25877H54.2688C55.1754 7.25877 55.8821 7.0521 56.3888 6.63877C56.9088 6.22544 57.1688 5.6121 57.1688 4.79877C57.1688 3.99877 56.9088 3.3721 56.3888 2.91877C55.8821 2.46544 55.1754 2.23877 54.2688 2.23877H49.4888V0.638769H54.5688C55.1554 0.638769 55.7021 0.745436 56.2088 0.958769C56.7154 1.1721 57.1554 1.4721 57.5288 1.85877C57.9154 2.2321 58.2154 2.6721 58.4288 3.17877C58.6554 3.6721 58.7688 4.2121 58.7688 4.79877C58.7688 5.3721 58.6621 5.90544 58.4488 6.39877C58.2354 6.8921 57.9354 7.31877 57.5488 7.67877C57.1754 8.03877 56.7354 8.32544 56.2288 8.53877C55.7221 8.73877 55.1688 8.83877 54.5688 8.83877H49.4888V7.25877ZM61.0302 6.53877C61.0302 5.60544 61.1368 4.76544 61.3502 4.01877C61.5768 3.25877 61.9035 2.61877 62.3302 2.09877C62.7568 1.56544 63.2902 1.15877 63.9302 0.878769C64.5702 0.585435 65.3035 0.438768 66.1302 0.438768C66.9568 0.438768 67.6835 0.585435 68.3102 0.878769C68.9502 1.15877 69.4835 1.56544 69.9102 2.09877C70.3502 2.61877 70.6768 3.25877 70.8902 4.01877C71.1168 4.76544 71.2302 5.60544 71.2302 6.53877V8.33877C71.2302 9.25877 71.1168 10.0988 70.8902 10.8588C70.6768 11.6054 70.3502 12.2454 69.9102 12.7788C69.4835 13.3121 68.9502 13.7254 68.3102 14.0188C67.6835 14.2988 66.9568 14.4388 66.1302 14.4388C65.3035 14.4388 64.5702 14.2988 63.9302 14.0188C63.2902 13.7254 62.7568 13.3121 62.3302 12.7788C61.9035 12.2454 61.5768 11.6054 61.3502 10.8588C61.1368 10.1121 61.0302 9.2721 61.0302 8.33877V6.53877ZM62.6102 6.53877V8.33877C62.6102 9.01877 62.6768 9.63877 62.8102 10.1988C62.9435 10.7454 63.1502 11.2188 63.4302 11.6188C63.7235 12.0054 64.0902 12.3054 64.5302 12.5188C64.9702 12.7321 65.5035 12.8388 66.1302 12.8388C66.7568 12.8388 67.2902 12.7321 67.7302 12.5188C68.1702 12.3054 68.5302 12.0054 68.8102 11.6188C69.0902 11.2188 69.2968 10.7454 69.4302 10.1988C69.5635 9.63877 69.6302 9.01877 69.6302 8.33877V6.53877C69.6302 5.85877 69.5635 5.24544 69.4302 4.69877C69.2968 4.13877 69.0902 3.66544 68.8102 3.27877C68.5302 2.87877 68.1702 2.5721 67.7302 2.35877C67.2902 2.14544 66.7568 2.03877 66.1302 2.03877C65.5035 2.03877 64.9702 2.14544 64.5302 2.35877C64.0902 2.5721 63.7235 2.87877 63.4302 3.27877C63.1502 3.66544 62.9435 4.13877 62.8102 4.69877C62.6768 5.24544 62.6102 5.85877 62.6102 6.53877ZM82.6159 9.13877C82.5493 9.9521 82.3893 10.6854 82.1359 11.3388C81.8959 11.9921 81.5626 12.5521 81.1359 13.0188C80.7226 13.4721 80.2159 13.8254 79.6159 14.0788C79.0159 14.3188 78.3293 14.4388 77.5559 14.4388C76.7293 14.4388 75.9959 14.2988 75.3559 14.0188C74.7159 13.7254 74.1826 13.3121 73.7559 12.7788C73.3293 12.2454 73.0026 11.6054 72.7759 10.8588C72.5626 10.1121 72.4559 9.2721 72.4559 8.33877V6.53877C72.4559 5.60544 72.5626 4.76544 72.7759 4.01877C73.0026 3.25877 73.3293 2.61877 73.7559 2.09877C74.1826 1.56544 74.7159 1.15877 75.3559 0.878769C75.9959 0.585435 76.7293 0.438768 77.5559 0.438768C79.1026 0.438768 80.2959 0.918769 81.1359 1.87877C81.9893 2.82544 82.4826 4.1121 82.6159 5.73877H81.0359C80.9826 5.17877 80.8759 4.6721 80.7159 4.21877C80.5693 3.76544 80.3559 3.37877 80.0759 3.05877C79.7959 2.72544 79.4426 2.4721 79.0159 2.29877C78.6026 2.12544 78.1159 2.03877 77.5559 2.03877C76.9293 2.03877 76.3959 2.14544 75.9559 2.35877C75.5159 2.5721 75.1493 2.87877 74.8559 3.27877C74.5759 3.66544 74.3693 4.13877 74.2359 4.69877C74.1026 5.24544 74.0359 5.85877 74.0359 6.53877V8.33877C74.0359 9.01877 74.1026 9.63877 74.2359 10.1988C74.3693 10.7454 74.5759 11.2188 74.8559 11.6188C75.1493 12.0054 75.5159 12.3054 75.9559 12.5188C76.3959 12.7321 76.9293 12.8388 77.5559 12.8388C78.1159 12.8388 78.6026 12.7521 79.0159 12.5788C79.4426 12.3921 79.7959 12.1388 80.0759 11.8188C80.3559 11.4988 80.5693 11.1121 80.7159 10.6588C80.8759 10.2054 80.9826 9.69877 81.0359 9.13877H82.6159ZM85.0727 14.2388V0.638769H86.6727V14.2388H85.0727ZM85.9927 2.17877V0.638769H94.3527V2.17877H85.9927ZM85.9927 14.2388V12.6788H94.3527V14.2388H85.9927ZM85.9927 8.21877V6.65877H93.5527V8.21877H85.9927ZM106.32 5.41877H104.72C104.72 4.92544 104.647 4.48544 104.5 4.09877C104.354 3.69877 104.134 3.35877 103.84 3.07877C103.56 2.78544 103.207 2.56544 102.78 2.41877C102.367 2.25877 101.894 2.17877 101.36 2.17877C100.28 2.17877 99.487 2.36544 98.9803 2.73877C98.4736 3.1121 98.2203 3.68544 98.2203 4.45877C98.2203 5.0321 98.427 5.44544 98.8403 5.69877C99.2536 5.93877 99.7736 6.11877 100.4 6.23877C101.027 6.35877 101.7 6.45877 102.42 6.53877C103.154 6.60544 103.827 6.75877 104.44 6.99877C105.067 7.23877 105.587 7.60544 106 8.09877C106.414 8.5921 106.62 9.3121 106.62 10.2588C106.62 10.9254 106.487 11.5121 106.22 12.0188C105.967 12.5121 105.607 12.9254 105.14 13.2588C104.687 13.5788 104.14 13.8254 103.5 13.9988C102.86 14.1588 102.16 14.2388 101.4 14.2388C100.64 14.2388 99.947 14.1054 99.3203 13.8388C98.707 13.5721 98.187 13.2121 97.7603 12.7588C97.3336 12.3054 97.0003 11.7788 96.7603 11.1788C96.5336 10.5654 96.4203 9.92544 96.4203 9.25877H98.0203C98.0203 10.2988 98.3336 11.1321 98.9603 11.7588C99.6003 12.3721 100.48 12.6788 101.6 12.6788C102.72 12.6788 103.567 12.4654 104.14 12.0388C104.727 11.6121 105.02 10.9521 105.02 10.0588C105.02 9.44544 104.814 9.00544 104.4 8.73877C103.987 8.45877 103.467 8.2521 102.84 8.11877C102.227 7.9721 101.554 7.85877 100.82 7.77877C100.1 7.68544 99.427 7.52544 98.8003 7.29877C98.1736 7.0721 97.6536 6.72544 97.2403 6.25877C96.827 5.7921 96.6203 5.1121 96.6203 4.21877C96.6203 3.60544 96.7403 3.07877 96.9803 2.63877C97.2203 2.18544 97.547 1.8121 97.9603 1.51877C98.387 1.22544 98.8936 1.00544 99.4803 0.858769C100.067 0.712103 100.707 0.638769 101.4 0.638769C102.16 0.638769 102.847 0.765436 103.46 1.01877C104.074 1.25877 104.587 1.5921 105 2.01877C105.427 2.44544 105.754 2.9521 105.98 3.53877C106.207 4.12544 106.32 4.7521 106.32 5.41877ZM117.395 5.41877H115.795C115.795 4.92544 115.721 4.48544 115.575 4.09877C115.428 3.69877 115.208 3.35877 114.915 3.07877C114.635 2.78544 114.281 2.56544 113.855 2.41877C113.441 2.25877 112.968 2.17877 112.435 2.17877C111.355 2.17877 110.561 2.36544 110.055 2.73877C109.548 3.1121 109.295 3.68544 109.295 4.45877C109.295 5.0321 109.501 5.44544 109.915 5.69877C110.328 5.93877 110.848 6.11877 111.475 6.23877C112.101 6.35877 112.775 6.45877 113.495 6.53877C114.228 6.60544 114.901 6.75877 115.515 6.99877C116.141 7.23877 116.661 7.60544 117.075 8.09877C117.488 8.5921 117.695 9.3121 117.695 10.2588C117.695 10.9254 117.561 11.5121 117.295 12.0188C117.041 12.5121 116.681 12.9254 116.215 13.2588C115.761 13.5788 115.215 13.8254 114.575 13.9988C113.935 14.1588 113.235 14.2388 112.475 14.2388C111.715 14.2388 111.021 14.1054 110.395 13.8388C109.781 13.5721 109.261 13.2121 108.835 12.7588C108.408 12.3054 108.075 11.7788 107.835 11.1788C107.608 10.5654 107.495 9.92544 107.495 9.25877H109.095C109.095 10.2988 109.408 11.1321 110.035 11.7588C110.675 12.3721 111.555 12.6788 112.675 12.6788C113.795 12.6788 114.641 12.4654 115.215 12.0388C115.801 11.6121 116.095 10.9521 116.095 10.0588C116.095 9.44544 115.888 9.00544 115.475 8.73877C115.061 8.45877 114.541 8.2521 113.915 8.11877C113.301 7.9721 112.628 7.85877 111.895 7.77877C111.175 7.68544 110.501 7.52544 109.875 7.29877C109.248 7.0721 108.728 6.72544 108.315 6.25877C107.901 5.7921 107.695 5.1121 107.695 4.21877C107.695 3.60544 107.815 3.07877 108.055 2.63877C108.295 2.18544 108.621 1.8121 109.035 1.51877C109.461 1.22544 109.968 1.00544 110.555 0.858769C111.141 0.712103 111.781 0.638769 112.475 0.638769C113.235 0.638769 113.921 0.765436 114.535 1.01877C115.148 1.25877 115.661 1.5921 116.075 2.01877C116.501 2.44544 116.828 2.9521 117.055 3.53877C117.281 4.12544 117.395 4.7521 117.395 5.41877ZM118.569 14.2388V12.6788H128.769V14.2388H118.569ZM118.569 2.17877V0.638769H128.769V2.17877H118.569ZM122.869 13.5788V1.23877H124.469V13.5788H122.869ZM129.975 14.2388V0.638769H131.575V14.2388H129.975ZM140.175 14.2388V0.638769H141.775V14.2388H140.175ZM141.775 14.2388H140.175L129.975 1.17877V0.638769H131.575L141.775 13.6988V14.2388ZM148.603 9.49877V8.13877H153.163V9.49877H148.603ZM151.643 14.2388V8.29877H153.163V14.2388H151.643ZM151.623 9.13877H152.003C152.003 9.9921 151.916 10.7521 151.743 11.4188C151.583 12.0721 151.329 12.6254 150.983 13.0788C150.649 13.5188 150.229 13.8588 149.723 14.0988C149.216 14.3254 148.616 14.4388 147.923 14.4388C147.136 14.4388 146.436 14.2988 145.823 14.0188C145.209 13.7254 144.696 13.3121 144.283 12.7788C143.869 12.2454 143.549 11.6054 143.323 10.8588C143.109 10.1121 143.003 9.2721 143.003 8.33877V6.53877C143.003 5.60544 143.109 4.76544 143.323 4.01877C143.549 3.25877 143.876 2.61877 144.303 2.09877C144.729 1.56544 145.263 1.15877 145.903 0.878769C146.543 0.585435 147.276 0.438768 148.103 0.438768C149.649 0.438768 150.843 0.918769 151.683 1.87877C152.536 2.82544 153.029 4.1121 153.163 5.73877H151.583C151.529 5.17877 151.423 4.6721 151.263 4.21877C151.116 3.76544 150.903 3.37877 150.623 3.05877C150.343 2.72544 149.989 2.4721 149.563 2.29877C149.149 2.12544 148.663 2.03877 148.103 2.03877C147.476 2.03877 146.943 2.14544 146.503 2.35877C146.063 2.5721 145.696 2.87877 145.403 3.27877C145.123 3.66544 144.916 4.13877 144.783 4.69877C144.649 5.24544 144.583 5.85877 144.583 6.53877V8.33877C144.583 9.01877 144.649 9.63877 144.783 10.1988C144.916 10.7454 145.123 11.2188 145.403 11.6188C145.696 12.0054 146.063 12.3054 146.503 12.5188C146.943 12.7321 147.476 12.8388 148.103 12.8388C148.689 12.8388 149.196 12.7454 149.623 12.5588C150.049 12.3721 150.403 12.1188 150.683 11.7988C150.963 11.4654 151.176 11.0788 151.323 10.6388C151.483 10.1854 151.583 9.68544 151.623 9.13877ZM154.35 14.2388V11.4788H157.11V14.2388H154.35ZM163.53 14.2388V11.4788H166.29V14.2388H163.53ZM172.71 14.2388V11.4788H175.47V14.2388H172.71ZM181.89 14.2388V11.4788H184.65V14.2388H181.89ZM191.069 14.2388V11.4788H193.829V14.2388L191.069 14.2388ZM200.249 14.2388V11.4788H203.009V14.2388H200.249ZM209.429 14.2388V11.4788H212.189V14.2388H209.429ZM218.608 14.2388V11.4788H221.368V14.2388H218.608ZM227.788 14.2388V11.4788H230.548V14.2388H227.788ZM236.968 14.2388V11.4788H239.728V14.2388H236.968ZM246.147 14.2388V11.4788H248.907V14.2388H246.147Z" fill="#00EEFF"/>
</svg>
