<svg width="114" height="19" viewBox="0 0 114 19" fill="none" xmlns="http://www.w3.org/2000/svg">
<path d="M11.4754 13.7778H9.25315L9.25315 9.33333H11.4754L11.4754 13.7778ZM9.25315 16H2.58648L2.58648 13.7778H9.25315V16ZM2.58648 13.7778H0.364258L0.364258 11.5556H2.58648V13.7778ZM2.58648 7.11111H9.25315V9.33333H0.364258L0.364258 0.444445H11.4754V2.66667H2.58648L2.58648 7.11111ZM22.593 16H15.9263V13.7778H22.593V16ZM24.8152 4.88889H22.593V2.66667H24.8152V4.88889ZM22.593 2.66667L15.9263 2.66667V0.444445L22.593 0.444445V2.66667ZM15.9263 9.33333L15.9263 13.7778H13.7041L13.7041 2.66667H15.9263V7.11111H22.593V9.33333H15.9263ZM24.8152 13.7778H22.593V9.33333H24.8152V13.7778ZM35.9328 16H29.2662V13.7778H35.9328V16ZM29.2662 13.7778H27.0439V9.33333H29.2662V13.7778ZM38.1551 13.7778H35.9328V9.33333H38.1551V13.7778ZM35.9328 9.33333L29.2662 9.33333V7.11111L35.9328 7.11111V9.33333ZM35.9328 2.66667H29.2662V0.444445H35.9328V2.66667ZM29.2662 7.11111H27.0439V2.66667H29.2662V7.11111ZM38.1551 7.11111H35.9328V2.66667H38.1551V7.11111ZM47.0505 9.33333H44.8282V7.11111H47.0505V9.33333ZM42.606 13.7778H40.3838V2.66667H42.606V13.7778ZM51.4949 13.7778H49.2727V2.66667H51.4949V13.7778ZM49.2727 2.66667L42.606 2.66667V0.444445L49.2727 0.444445V2.66667ZM49.2727 16H42.606V13.7778H49.2727V16ZM62.6125 16H55.9459V13.7778H62.6125V16ZM62.6125 2.66667H55.9459V0.444445H62.6125V2.66667ZM55.9459 7.11111H53.7236V2.66667H55.9459V7.11111ZM55.9459 13.7778H53.7236V11.5556H55.9459V13.7778ZM62.6125 9.33333H55.9459V7.11111H62.6125V2.66667H64.8347V13.7778L62.6125 13.7778V9.33333ZM73.7301 18.2222H67.0635V16H73.7301V18.2222ZM84.8391 16H78.1724V13.7778H84.8391V16ZM84.8391 2.66667L78.1724 2.66667V0.444445L84.8391 0.444445V2.66667ZM78.1724 7.11111H75.9502V2.66667H78.1724V7.11111ZM78.1724 13.7778H75.9502V11.5556H78.1724V13.7778ZM84.8391 9.33333H78.1724V7.11111H84.8391V2.66667H87.0613V13.7778H84.8391V9.33333ZM98.1789 16H91.5123V13.7778H98.1789V16ZM98.1789 2.66667H91.5123V0.444445H98.1789V2.66667ZM91.5123 7.11111H89.29V2.66667H91.5123V7.11111ZM91.5123 13.7778H89.29V11.5556H91.5123V13.7778ZM98.1789 9.33333L91.5123 9.33333V7.11111L98.1789 7.11111V2.66667H100.401V13.7778H98.1789V9.33333ZM111.519 16H104.852V13.7778H111.519V16ZM104.852 13.7778H102.63V9.33333H104.852V13.7778ZM113.741 13.7778H111.519V9.33333H113.741V13.7778ZM111.519 9.33333H104.852V7.11111H111.519V9.33333ZM111.519 2.66667H104.852V0.444445H111.519V2.66667ZM104.852 7.11111H102.63V2.66667H104.852V7.11111ZM113.741 7.11111H111.519V2.66667L113.741 2.66667V7.11111Z" fill="#F6BF1D"/>
</svg>
